<svg width="102" height="26" viewBox="0 0 102 26" fill="none" xmlns="http://www.w3.org/2000/svg">
<rect width="102" height="25.5" fill="#C4C4C4"/>
<rect width="25.5" height="25.5" fill="#FFFD7B"/>
<rect x="51" width="25.5" height="25.5" fill="#FFFD7B"/>
<rect x="76.5" width="25.5" height="25.5" fill="#FFFD7B"/>
<rect x="25.5" width="25.5" height="25.5" fill="#FFFD7B"/>
<rect x="11.9531" y="23.1094" width="0.796875" height="0.796875" fill="#304560"/>
<rect x="62.9531" y="23.1094" width="0.796875" height="0.796875" fill="#304560"/>
<rect x="88.4531" y="23.1094" width="0.796875" height="0.796875" fill="#304560"/>
<rect x="37.4531" y="23.1094" width="0.796875" height="0.796875" fill="#304560"/>
<rect x="11.9531" y="22.3125" width="0.796875" height="0.796875" fill="#304560"/>
<rect x="62.9531" y="22.3125" width="0.796875" height="0.796875" fill="#304560"/>
<rect x="88.4531" y="22.3125" width="0.796875" height="0.796875" fill="#304560"/>
<rect x="37.4531" y="22.3125" width="0.796875" height="0.796875" fill="#304560"/>
<rect x="11.9531" y="21.5156" width="0.796875" height="0.796875" fill="black"/>
<rect x="62.9531" y="21.5156" width="0.796875" height="0.796875" fill="black"/>
<rect x="88.4531" y="21.5156" width="0.796875" height="0.796875" fill="black"/>
<rect x="37.4531" y="21.5156" width="0.796875" height="0.796875" fill="black"/>
<rect x="11.9531" y="20.7188" width="0.796875" height="0.796875" fill="black"/>
<rect x="62.9531" y="20.7188" width="0.796875" height="0.796875" fill="black"/>
<rect x="88.4531" y="20.7188" width="0.796875" height="0.796875" fill="black"/>
<rect x="37.4531" y="20.7188" width="0.796875" height="0.796875" fill="black"/>
<rect x="12.75" y="20.7188" width="0.796875" height="0.796875" fill="black"/>
<rect x="63.75" y="20.7188" width="0.796875" height="0.796875" fill="black"/>
<rect x="89.25" y="20.7188" width="0.796875" height="0.796875" fill="black"/>
<rect x="38.25" y="20.7188" width="0.796875" height="0.796875" fill="black"/>
<rect x="12.75" y="21.5156" width="0.796875" height="0.796875" fill="black"/>
<rect x="63.75" y="21.5156" width="0.796875" height="0.796875" fill="black"/>
<rect x="89.25" y="21.5156" width="0.796875" height="0.796875" fill="black"/>
<rect x="38.25" y="21.5156" width="0.796875" height="0.796875" fill="black"/>
<rect x="12.75" y="22.3125" width="0.796875" height="0.796875" fill="#304560"/>
<rect x="63.75" y="22.3125" width="0.796875" height="0.796875" fill="#304560"/>
<rect x="89.25" y="22.3125" width="0.796875" height="0.796875" fill="#304560"/>
<rect x="38.25" y="22.3125" width="0.796875" height="0.796875" fill="#304560"/>
<rect x="13.5469" y="22.3125" width="0.796875" height="0.796875" fill="#304560"/>
<rect x="64.5469" y="22.3125" width="0.796875" height="0.796875" fill="#304560"/>
<rect x="90.0469" y="22.3125" width="0.796875" height="0.796875" fill="#304560"/>
<rect x="39.0469" y="22.3125" width="0.796875" height="0.796875" fill="#304560"/>
<rect width="0.796875" height="0.796875" transform="matrix(1 0 0 -1 13.5469 22.3125)" fill="black"/>
<rect width="0.796875" height="0.796875" transform="matrix(1 0 0 -1 64.5469 22.3125)" fill="black"/>
<rect width="0.796875" height="0.796875" transform="matrix(1 0 0 -1 90.0469 22.3125)" fill="black"/>
<rect width="0.796875" height="0.796875" transform="matrix(1 0 0 -1 39.0469 22.3125)" fill="black"/>
<rect width="0.796875" height="0.796875" transform="matrix(1 0 0 -1 13.5469 21.5156)" fill="black"/>
<rect width="0.796875" height="0.796875" transform="matrix(1 0 0 -1 64.5469 21.5156)" fill="black"/>
<rect width="0.796875" height="0.796875" transform="matrix(1 0 0 -1 90.0469 21.5156)" fill="black"/>
<rect width="0.796875" height="0.796875" transform="matrix(1 0 0 -1 39.0469 21.5156)" fill="black"/>
<rect width="0.796875" height="0.796875" transform="matrix(1 0 0 -1 14.3438 20.7188)" fill="black"/>
<rect width="0.796875" height="0.796875" transform="matrix(1 0 0 -1 65.3438 20.7188)" fill="black"/>
<rect width="0.796875" height="0.796875" transform="matrix(1 0 0 -1 90.8438 20.7188)" fill="black"/>
<rect width="0.796875" height="0.796875" transform="matrix(1 0 0 -1 39.8438 20.7188)" fill="black"/>
<rect x="11.1562" y="20.7188" width="0.796875" height="0.796875" fill="black"/>
<rect x="62.1562" y="20.7188" width="0.796875" height="0.796875" fill="black"/>
<rect x="87.6562" y="20.7188" width="0.796875" height="0.796875" fill="black"/>
<rect x="36.6562" y="20.7188" width="0.796875" height="0.796875" fill="black"/>
<rect x="10.3594" y="19.9219" width="0.796875" height="0.796875" fill="black"/>
<rect x="61.3594" y="19.9219" width="0.796875" height="0.796875" fill="black"/>
<rect x="86.8594" y="19.9219" width="0.796875" height="0.796875" fill="black"/>
<rect x="35.8594" y="19.9219" width="0.796875" height="0.796875" fill="black"/>
<rect x="12.75" y="23.1094" width="0.796875" height="0.796875" fill="#304560"/>
<rect x="63.75" y="23.1094" width="0.796875" height="0.796875" fill="#304560"/>
<rect x="89.25" y="23.1094" width="0.796875" height="0.796875" fill="#304560"/>
<rect x="38.25" y="23.1094" width="0.796875" height="0.796875" fill="#304560"/>
<rect x="13.5469" y="23.1094" width="0.796875" height="0.796875" fill="#304560"/>
<rect x="64.5469" y="23.1094" width="0.796875" height="0.796875" fill="#304560"/>
<rect x="90.0469" y="23.1094" width="0.796875" height="0.796875" fill="#304560"/>
<rect x="13.5469" y="23.9062" width="0.796875" height="0.796875" fill="#304560"/>
<rect x="64.5469" y="23.9062" width="0.796875" height="0.796875" fill="#304560"/>
<rect x="90.0469" y="23.9062" width="0.796875" height="0.796875" fill="#304560"/>
<rect x="14.3438" y="23.9062" width="0.796875" height="0.796875" fill="#304560"/>
<rect x="65.3438" y="23.9062" width="0.796875" height="0.796875" fill="#304560"/>
<rect x="90.8438" y="23.9062" width="0.796875" height="0.796875" fill="#304560"/>
<rect x="15.1406" y="23.9062" width="0.796875" height="0.796875" fill="#304560"/>
<rect x="66.1406" y="23.9062" width="0.796875" height="0.796875" fill="#304560"/>
<rect x="91.6406" y="23.9062" width="0.796875" height="0.796875" fill="#304560"/>
<rect x="15.1406" y="23.1094" width="0.796875" height="0.796875" fill="#304560"/>
<rect x="66.1406" y="23.1094" width="0.796875" height="0.796875" fill="#304560"/>
<rect x="91.6406" y="23.1094" width="0.796875" height="0.796875" fill="#304560"/>
<rect x="91.6406" y="22.3125" width="0.796875" height="0.796875" fill="#304560"/>
<rect x="90.8438" y="22.3125" width="0.796875" height="0.796875" fill="#304560"/>
<rect x="40.6406" y="23.1094" width="0.796875" height="0.796875" fill="#304560"/>
<rect x="15.1406" y="22.3125" width="0.796875" height="0.796875" fill="black"/>
<rect x="66.1406" y="22.3125" width="0.796875" height="0.796875" fill="black"/>
<rect x="91.6406" y="21.5156" width="0.796875" height="0.796875" fill="black"/>
<rect x="40.6406" y="22.3125" width="0.796875" height="0.796875" fill="black"/>
<rect x="15.1406" y="19.9219" width="0.796875" height="0.796875" fill="black"/>
<rect x="66.1406" y="19.9219" width="0.796875" height="0.796875" fill="black"/>
<rect x="40.6406" y="19.9219" width="0.796875" height="0.796875" fill="black"/>
<rect x="40.6406" y="20.7188" width="0.796875" height="0.796875" fill="black"/>
<rect x="40.6406" y="21.5156" width="0.796875" height="0.796875" fill="black"/>
<rect x="15.1406" y="19.125" width="0.796875" height="0.796875" fill="black"/>
<rect x="66.1406" y="19.125" width="0.796875" height="0.796875" fill="black"/>
<rect x="91.6406" y="19.125" width="0.796875" height="0.796875" fill="black"/>
<rect x="40.6406" y="19.125" width="0.796875" height="0.796875" fill="black"/>
<rect x="16.7344" y="18.3281" width="0.796875" height="0.796875" fill="black"/>
<rect x="67.7344" y="18.3281" width="0.796875" height="0.796875" fill="black"/>
<rect x="93.2344" y="18.3281" width="0.796875" height="0.796875" fill="black"/>
<rect x="42.2344" y="18.3281" width="0.796875" height="0.796875" fill="black"/>
<rect x="15.9375" y="19.125" width="0.796875" height="0.796875" fill="black"/>
<rect x="66.9375" y="19.125" width="0.796875" height="0.796875" fill="black"/>
<rect x="92.4375" y="19.125" width="0.796875" height="0.796875" fill="black"/>
<rect x="41.4375" y="19.125" width="0.796875" height="0.796875" fill="black"/>
<rect x="16.7344" y="17.5312" width="0.796875" height="0.796875" fill="black"/>
<rect x="67.7344" y="17.5312" width="0.796875" height="0.796875" fill="black"/>
<rect x="93.2344" y="17.5312" width="0.796875" height="0.796875" fill="black"/>
<rect x="42.2344" y="17.5312" width="0.796875" height="0.796875" fill="black"/>
<rect x="16.7344" y="16.7344" width="0.796875" height="0.796875" fill="black"/>
<rect x="67.7344" y="16.7344" width="0.796875" height="0.796875" fill="black"/>
<rect x="93.2344" y="16.7344" width="0.796875" height="0.796875" fill="black"/>
<rect x="42.2344" y="16.7344" width="0.796875" height="0.796875" fill="black"/>
<rect x="16.7344" y="15.9375" width="0.796875" height="0.796875" fill="black"/>
<rect x="67.7344" y="15.9375" width="0.796875" height="0.796875" fill="black"/>
<rect x="93.2344" y="15.9375" width="0.796875" height="0.796875" fill="black"/>
<rect x="42.2344" y="15.9375" width="0.796875" height="0.796875" fill="black"/>
<rect x="16.7344" y="15.1406" width="0.796875" height="0.796875" fill="black"/>
<rect x="67.7344" y="15.1406" width="0.796875" height="0.796875" fill="black"/>
<rect x="93.2344" y="15.1406" width="0.796875" height="0.796875" fill="black"/>
<rect x="42.2344" y="15.1406" width="0.796875" height="0.796875" fill="black"/>
<rect x="16.7344" y="14.3438" width="0.796875" height="0.796875" fill="black"/>
<rect x="67.7344" y="14.3438" width="0.796875" height="0.796875" fill="black"/>
<rect x="93.2344" y="14.3438" width="0.796875" height="0.796875" fill="black"/>
<rect x="42.2344" y="14.3438" width="0.796875" height="0.796875" fill="black"/>
<rect x="16.7344" y="13.5469" width="0.796875" height="0.796875" fill="black"/>
<rect x="67.7344" y="13.5469" width="0.796875" height="0.796875" fill="black"/>
<rect x="93.2344" y="13.5469" width="0.796875" height="0.796875" fill="black"/>
<rect x="42.2344" y="13.5469" width="0.796875" height="0.796875" fill="black"/>
<rect x="16.7344" y="12.75" width="0.796875" height="0.796875" fill="black"/>
<rect x="67.7344" y="12.75" width="0.796875" height="0.796875" fill="black"/>
<rect x="93.2344" y="12.75" width="0.796875" height="0.796875" fill="black"/>
<rect x="42.2344" y="12.75" width="0.796875" height="0.796875" fill="black"/>
<rect x="16.7344" y="11.9531" width="0.796875" height="0.796875" fill="black"/>
<rect x="67.7344" y="11.9531" width="0.796875" height="0.796875" fill="black"/>
<rect x="93.2344" y="11.9531" width="0.796875" height="0.796875" fill="black"/>
<rect x="42.2344" y="11.9531" width="0.796875" height="0.796875" fill="black"/>
<rect x="15.9375" y="11.9531" width="0.796875" height="0.796875" fill="black"/>
<rect x="66.9375" y="11.9531" width="0.796875" height="0.796875" fill="black"/>
<rect x="92.4375" y="11.9531" width="0.796875" height="0.796875" fill="black"/>
<rect x="41.4375" y="11.9531" width="0.796875" height="0.796875" fill="black"/>
<rect x="15.9375" y="11.1562" width="0.796875" height="0.796875" fill="black"/>
<rect x="66.9375" y="11.1562" width="0.796875" height="0.796875" fill="black"/>
<rect x="92.4375" y="11.1562" width="0.796875" height="0.796875" fill="black"/>
<rect x="41.4375" y="11.1562" width="0.796875" height="0.796875" fill="black"/>
<rect x="14.3438" y="10.3594" width="0.796875" height="0.796875" fill="black"/>
<rect x="65.3438" y="10.3594" width="0.796875" height="0.796875" fill="black"/>
<rect x="90.8438" y="10.3594" width="0.796875" height="0.796875" fill="black"/>
<rect x="39.8438" y="10.3594" width="0.796875" height="0.796875" fill="black"/>
<rect x="13.5469" y="10.3594" width="0.796875" height="0.796875" fill="black"/>
<rect x="64.5469" y="10.3594" width="0.796875" height="0.796875" fill="black"/>
<rect x="90.0469" y="10.3594" width="0.796875" height="0.796875" fill="black"/>
<rect x="39.0469" y="10.3594" width="0.796875" height="0.796875" fill="black"/>
<rect x="12.75" y="10.3594" width="0.796875" height="0.796875" fill="black"/>
<rect x="63.75" y="10.3594" width="0.796875" height="0.796875" fill="black"/>
<rect x="89.25" y="10.3594" width="0.796875" height="0.796875" fill="black"/>
<rect x="38.25" y="10.3594" width="0.796875" height="0.796875" fill="black"/>
<rect x="11.9531" y="10.3594" width="0.796875" height="0.796875" fill="black"/>
<rect x="62.9531" y="10.3594" width="0.796875" height="0.796875" fill="black"/>
<rect x="88.4531" y="10.3594" width="0.796875" height="0.796875" fill="black"/>
<rect x="37.4531" y="10.3594" width="0.796875" height="0.796875" fill="black"/>
<rect x="11.1562" y="11.1562" width="0.796875" height="0.796875" fill="black"/>
<rect x="62.1562" y="11.1562" width="0.796875" height="0.796875" fill="black"/>
<rect x="87.6562" y="11.1562" width="0.796875" height="0.796875" fill="black"/>
<rect x="36.6562" y="11.1562" width="0.796875" height="0.796875" fill="black"/>
<rect x="9.5625" y="11.1562" width="0.796875" height="0.796875" fill="black"/>
<rect x="60.5625" y="11.1562" width="0.796875" height="0.796875" fill="black"/>
<rect x="86.0625" y="11.1562" width="0.796875" height="0.796875" fill="black"/>
<rect x="35.0625" y="11.1562" width="0.796875" height="0.796875" fill="black"/>
<rect x="9.5625" y="11.9531" width="0.796875" height="0.796875" fill="black"/>
<rect x="60.5625" y="11.9531" width="0.796875" height="0.796875" fill="black"/>
<rect x="86.0625" y="11.9531" width="0.796875" height="0.796875" fill="black"/>
<rect x="35.0625" y="11.9531" width="0.796875" height="0.796875" fill="black"/>
<rect x="10.3594" y="11.9531" width="0.796875" height="0.796875" fill="black"/>
<rect x="61.3594" y="11.9531" width="0.796875" height="0.796875" fill="black"/>
<rect x="86.8594" y="11.9531" width="0.796875" height="0.796875" fill="black"/>
<rect x="35.8594" y="11.9531" width="0.796875" height="0.796875" fill="black"/>
<rect x="11.1562" y="11.9531" width="0.796875" height="0.796875" fill="black"/>
<rect x="62.1562" y="11.9531" width="0.796875" height="0.796875" fill="black"/>
<rect x="87.6562" y="11.9531" width="0.796875" height="0.796875" fill="black"/>
<rect x="36.6562" y="11.9531" width="0.796875" height="0.796875" fill="black"/>
<rect x="11.9531" y="11.9531" width="0.796875" height="0.796875" fill="black"/>
<rect x="62.9531" y="11.9531" width="0.796875" height="0.796875" fill="black"/>
<rect x="88.4531" y="11.9531" width="0.796875" height="0.796875" fill="black"/>
<rect x="37.4531" y="11.9531" width="0.796875" height="0.796875" fill="black"/>
<rect x="11.9531" y="11.1562" width="0.796875" height="0.796875" fill="black"/>
<rect x="62.9531" y="11.1562" width="0.796875" height="0.796875" fill="black"/>
<rect x="88.4531" y="11.1562" width="0.796875" height="0.796875" fill="black"/>
<rect x="37.4531" y="11.1562" width="0.796875" height="0.796875" fill="black"/>
<rect x="12.75" y="11.1562" width="0.796875" height="0.796875" fill="black"/>
<rect x="63.75" y="11.1562" width="0.796875" height="0.796875" fill="black"/>
<rect x="89.25" y="11.1562" width="0.796875" height="0.796875" fill="black"/>
<rect x="38.25" y="11.1562" width="0.796875" height="0.796875" fill="black"/>
<rect x="14.3438" y="11.1562" width="0.796875" height="0.796875" fill="black"/>
<rect x="65.3438" y="11.1562" width="0.796875" height="0.796875" fill="black"/>
<rect x="90.8438" y="11.1562" width="0.796875" height="0.796875" fill="black"/>
<rect x="39.8438" y="11.1562" width="0.796875" height="0.796875" fill="black"/>
<rect x="13.5469" y="11.1562" width="0.796875" height="0.796875" fill="black"/>
<rect x="64.5469" y="11.1562" width="0.796875" height="0.796875" fill="black"/>
<rect x="90.0469" y="11.1562" width="0.796875" height="0.796875" fill="black"/>
<rect x="39.0469" y="11.1562" width="0.796875" height="0.796875" fill="black"/>
<rect x="13.5469" y="11.9531" width="0.796875" height="0.796875" fill="black"/>
<rect x="64.5469" y="11.9531" width="0.796875" height="0.796875" fill="black"/>
<rect x="90.0469" y="11.9531" width="0.796875" height="0.796875" fill="black"/>
<rect x="39.0469" y="11.9531" width="0.796875" height="0.796875" fill="black"/>
<rect x="12.75" y="11.9531" width="0.796875" height="0.796875" fill="black"/>
<rect x="63.75" y="11.9531" width="0.796875" height="0.796875" fill="black"/>
<rect x="89.25" y="11.9531" width="0.796875" height="0.796875" fill="black"/>
<rect x="38.25" y="11.9531" width="0.796875" height="0.796875" fill="black"/>
<rect x="10.3594" y="11.1562" width="0.796875" height="0.796875" fill="black"/>
<rect x="61.3594" y="11.1562" width="0.796875" height="0.796875" fill="black"/>
<rect x="86.8594" y="11.1562" width="0.796875" height="0.796875" fill="black"/>
<rect x="35.8594" y="11.1562" width="0.796875" height="0.796875" fill="black"/>
<rect x="10.3594" y="10.3594" width="0.796875" height="0.796875" fill="black"/>
<rect x="61.3594" y="10.3594" width="0.796875" height="0.796875" fill="black"/>
<rect x="86.8594" y="10.3594" width="0.796875" height="0.796875" fill="black"/>
<rect x="35.8594" y="10.3594" width="0.796875" height="0.796875" fill="black"/>
<rect x="15.1406" y="12.75" width="0.796875" height="0.796875" fill="black"/>
<rect x="66.1406" y="12.75" width="0.796875" height="0.796875" fill="black"/>
<rect x="91.6406" y="12.75" width="0.796875" height="0.796875" fill="black"/>
<rect x="40.6406" y="12.75" width="0.796875" height="0.796875" fill="black"/>
<rect x="15.1406" y="11.9531" width="0.796875" height="0.796875" fill="black"/>
<rect x="66.1406" y="11.9531" width="0.796875" height="0.796875" fill="black"/>
<rect x="91.6406" y="11.9531" width="0.796875" height="0.796875" fill="black"/>
<rect x="40.6406" y="11.9531" width="0.796875" height="0.796875" fill="black"/>
<rect x="15.1406" y="11.1562" width="0.796875" height="0.796875" fill="black"/>
<rect x="66.1406" y="11.1562" width="0.796875" height="0.796875" fill="black"/>
<rect x="91.6406" y="11.1562" width="0.796875" height="0.796875" fill="black"/>
<rect x="40.6406" y="11.1562" width="0.796875" height="0.796875" fill="black"/>
<rect x="14.3438" y="13.5469" width="0.796875" height="0.796875" fill="black"/>
<rect x="65.3438" y="13.5469" width="0.796875" height="0.796875" fill="black"/>
<rect x="90.8438" y="13.5469" width="0.796875" height="0.796875" fill="black"/>
<rect x="39.8438" y="13.5469" width="0.796875" height="0.796875" fill="black"/>
<rect x="14.3438" y="12.75" width="0.796875" height="0.796875" fill="black"/>
<rect x="65.3438" y="12.75" width="0.796875" height="0.796875" fill="black"/>
<rect x="90.8438" y="12.75" width="0.796875" height="0.796875" fill="black"/>
<rect x="39.8438" y="12.75" width="0.796875" height="0.796875" fill="black"/>
<rect x="14.3438" y="11.9531" width="0.796875" height="0.796875" fill="black"/>
<rect x="65.3438" y="11.9531" width="0.796875" height="0.796875" fill="black"/>
<rect x="90.8438" y="11.9531" width="0.796875" height="0.796875" fill="black"/>
<rect x="39.8438" y="11.9531" width="0.796875" height="0.796875" fill="black"/>
<rect x="13.5469" y="12.75" width="0.796875" height="0.796875" fill="black"/>
<rect x="64.5469" y="12.75" width="0.796875" height="0.796875" fill="black"/>
<rect x="90.0469" y="12.75" width="0.796875" height="0.796875" fill="black"/>
<rect x="39.0469" y="12.75" width="0.796875" height="0.796875" fill="black"/>
<rect x="12.75" y="13.5469" width="0.796875" height="0.796875" fill="black"/>
<rect x="63.75" y="13.5469" width="0.796875" height="0.796875" fill="black"/>
<rect x="89.25" y="13.5469" width="0.796875" height="0.796875" fill="black"/>
<rect x="38.25" y="13.5469" width="0.796875" height="0.796875" fill="black"/>
<rect x="11.9531" y="13.5469" width="0.796875" height="0.796875" fill="black"/>
<rect x="62.9531" y="13.5469" width="0.796875" height="0.796875" fill="black"/>
<rect x="88.4531" y="13.5469" width="0.796875" height="0.796875" fill="black"/>
<rect x="37.4531" y="13.5469" width="0.796875" height="0.796875" fill="black"/>
<rect x="11.9531" y="14.3438" width="0.796875" height="0.796875" fill="black"/>
<rect x="62.9531" y="14.3438" width="0.796875" height="0.796875" fill="black"/>
<rect x="88.4531" y="14.3438" width="0.796875" height="0.796875" fill="black"/>
<rect x="37.4531" y="14.3438" width="0.796875" height="0.796875" fill="black"/>
<rect x="12.75" y="12.75" width="0.796875" height="0.796875" fill="black"/>
<rect x="63.75" y="12.75" width="0.796875" height="0.796875" fill="black"/>
<rect x="89.25" y="12.75" width="0.796875" height="0.796875" fill="black"/>
<rect x="38.25" y="12.75" width="0.796875" height="0.796875" fill="black"/>
<rect x="11.9531" y="12.75" width="0.796875" height="0.796875" fill="black"/>
<rect x="62.9531" y="12.75" width="0.796875" height="0.796875" fill="black"/>
<rect x="88.4531" y="12.75" width="0.796875" height="0.796875" fill="black"/>
<rect x="37.4531" y="12.75" width="0.796875" height="0.796875" fill="black"/>
<rect x="11.1562" y="13.5469" width="0.796875" height="0.796875" fill="black"/>
<rect x="62.1562" y="13.5469" width="0.796875" height="0.796875" fill="black"/>
<rect x="87.6562" y="13.5469" width="0.796875" height="0.796875" fill="black"/>
<rect x="36.6562" y="13.5469" width="0.796875" height="0.796875" fill="black"/>
<rect x="11.1562" y="12.75" width="0.796875" height="0.796875" fill="black"/>
<rect x="62.1562" y="12.75" width="0.796875" height="0.796875" fill="black"/>
<rect x="87.6562" y="12.75" width="0.796875" height="0.796875" fill="black"/>
<rect x="36.6562" y="12.75" width="0.796875" height="0.796875" fill="black"/>
<rect x="10.3594" y="12.75" width="0.796875" height="0.796875" fill="black"/>
<rect x="61.3594" y="12.75" width="0.796875" height="0.796875" fill="black"/>
<rect x="86.8594" y="12.75" width="0.796875" height="0.796875" fill="black"/>
<rect x="35.8594" y="12.75" width="0.796875" height="0.796875" fill="black"/>
<rect x="9.5625" y="12.75" width="0.796875" height="0.796875" fill="black"/>
<rect x="60.5625" y="12.75" width="0.796875" height="0.796875" fill="black"/>
<rect x="86.0625" y="12.75" width="0.796875" height="0.796875" fill="black"/>
<rect x="35.0625" y="12.75" width="0.796875" height="0.796875" fill="black"/>
<rect x="8.76562" y="12.75" width="0.796875" height="0.796875" fill="black"/>
<rect x="59.7656" y="12.75" width="0.796875" height="0.796875" fill="black"/>
<rect x="85.2656" y="12.75" width="0.796875" height="0.796875" fill="black"/>
<rect x="34.2656" y="12.75" width="0.796875" height="0.796875" fill="black"/>
<rect x="8.76562" y="13.5469" width="0.796875" height="0.796875" fill="black"/>
<rect x="59.7656" y="13.5469" width="0.796875" height="0.796875" fill="black"/>
<rect x="85.2656" y="13.5469" width="0.796875" height="0.796875" fill="black"/>
<rect x="34.2656" y="13.5469" width="0.796875" height="0.796875" fill="black"/>
<rect x="7.96875" y="13.5469" width="0.796875" height="0.796875" fill="black"/>
<rect x="58.9688" y="13.5469" width="0.796875" height="0.796875" fill="black"/>
<rect x="84.4688" y="13.5469" width="0.796875" height="0.796875" fill="black"/>
<rect x="33.4688" y="13.5469" width="0.796875" height="0.796875" fill="black"/>
<rect x="7.96875" y="12.75" width="0.796875" height="0.796875" fill="black"/>
<rect x="58.9688" y="12.75" width="0.796875" height="0.796875" fill="black"/>
<rect x="84.4688" y="12.75" width="0.796875" height="0.796875" fill="black"/>
<rect x="33.4688" y="12.75" width="0.796875" height="0.796875" fill="black"/>
<rect x="7.96875" y="11.9531" width="0.796875" height="0.796875" fill="black"/>
<rect x="58.9688" y="11.9531" width="0.796875" height="0.796875" fill="black"/>
<rect x="84.4688" y="11.9531" width="0.796875" height="0.796875" fill="black"/>
<rect x="33.4688" y="11.9531" width="0.796875" height="0.796875" fill="black"/>
<rect x="8.76562" y="11.9531" width="0.796875" height="0.796875" fill="black"/>
<rect x="59.7656" y="11.9531" width="0.796875" height="0.796875" fill="black"/>
<rect x="85.2656" y="11.9531" width="0.796875" height="0.796875" fill="black"/>
<rect x="34.2656" y="11.9531" width="0.796875" height="0.796875" fill="black"/>
<rect x="8.76562" y="11.1562" width="0.796875" height="0.796875" fill="black"/>
<rect x="59.7656" y="11.1562" width="0.796875" height="0.796875" fill="black"/>
<rect x="85.2656" y="11.1562" width="0.796875" height="0.796875" fill="black"/>
<rect x="34.2656" y="11.1562" width="0.796875" height="0.796875" fill="black"/>
<rect x="14.3438" y="19.125" width="0.796875" height="0.796875" fill="black"/>
<rect x="65.3438" y="19.125" width="0.796875" height="0.796875" fill="black"/>
<rect x="90.8438" y="19.125" width="0.796875" height="0.796875" fill="black"/>
<rect x="39.8438" y="19.125" width="0.796875" height="0.796875" fill="black"/>
<rect x="15.9375" y="20.7188" width="0.796875" height="0.796875" fill="black"/>
<rect x="66.9375" y="20.7188" width="0.796875" height="0.796875" fill="black"/>
<rect x="41.4375" y="20.7188" width="0.796875" height="0.796875" fill="black"/>
<rect x="16.7344" y="21.5156" width="0.796875" height="0.796875" fill="black"/>
<rect x="67.7344" y="21.5156" width="0.796875" height="0.796875" fill="black"/>
<rect x="93.2344" y="20.7188" width="0.796875" height="0.796875" fill="black"/>
<rect x="93.2344" y="19.9219" width="0.796875" height="0.796875" fill="black"/>
<rect x="42.2344" y="21.5156" width="0.796875" height="0.796875" fill="black"/>
<rect x="14.3438" y="22.3125" width="0.796875" height="0.796875" fill="black"/>
<rect x="65.3438" y="22.3125" width="0.796875" height="0.796875" fill="black"/>
<rect x="39.8438" y="22.3125" width="0.796875" height="0.796875" fill="black"/>
<rect x="14.3438" y="23.1094" width="0.796875" height="0.796875" fill="#304560"/>
<rect x="65.3438" y="23.1094" width="0.796875" height="0.796875" fill="#304560"/>
<rect x="90.8438" y="23.1094" width="0.796875" height="0.796875" fill="#304560"/>
<rect x="39.8438" y="23.1094" width="0.796875" height="0.796875" fill="#304560"/>
<rect x="14.3438" y="21.5156" width="0.796875" height="0.796875" fill="black"/>
<rect x="65.3438" y="21.5156" width="0.796875" height="0.796875" fill="black"/>
<rect x="90.8438" y="21.5156" width="0.796875" height="0.796875" fill="black"/>
<rect x="39.8438" y="21.5156" width="0.796875" height="0.796875" fill="black"/>
<rect x="14.3438" y="20.7188" width="0.796875" height="0.796875" fill="black"/>
<rect x="65.3438" y="20.7188" width="0.796875" height="0.796875" fill="black"/>
<rect x="90.8438" y="20.7188" width="0.796875" height="0.796875" fill="black"/>
<rect x="39.8438" y="20.7188" width="0.796875" height="0.796875" fill="black"/>
<rect x="15.9375" y="22.3125" width="0.796875" height="0.796875" fill="black"/>
<rect x="66.9375" y="22.3125" width="0.796875" height="0.796875" fill="black"/>
<rect x="92.4375" y="21.5156" width="0.796875" height="0.796875" fill="black"/>
<rect x="41.4375" y="22.3125" width="0.796875" height="0.796875" fill="black"/>
<rect x="11.1562" y="23.1094" width="0.796875" height="0.796875" fill="#304560"/>
<rect x="62.1562" y="23.1094" width="0.796875" height="0.796875" fill="#304560"/>
<rect x="36.6562" y="23.1094" width="0.796875" height="0.796875" fill="#304560"/>
<rect x="11.1562" y="22.3125" width="0.796875" height="0.796875" fill="#304560"/>
<rect x="62.1562" y="22.3125" width="0.796875" height="0.796875" fill="#304560"/>
<rect x="87.6562" y="22.3125" width="0.796875" height="0.796875" fill="#304560"/>
<rect x="36.6562" y="22.3125" width="0.796875" height="0.796875" fill="#304560"/>
<rect x="11.1562" y="21.5156" width="0.796875" height="0.796875" fill="black"/>
<rect x="62.1562" y="21.5156" width="0.796875" height="0.796875" fill="black"/>
<rect x="87.6562" y="21.5156" width="0.796875" height="0.796875" fill="black"/>
<rect x="36.6562" y="21.5156" width="0.796875" height="0.796875" fill="black"/>
<rect x="10.3594" y="23.1094" width="0.796875" height="0.796875" fill="#304560"/>
<rect x="61.3594" y="23.1094" width="0.796875" height="0.796875" fill="#304560"/>
<rect x="86.8594" y="23.1094" width="0.796875" height="0.796875" fill="#304560"/>
<rect x="35.8594" y="23.1094" width="0.796875" height="0.796875" fill="#304560"/>
<rect x="35.8594" y="22.3125" width="0.796875" height="0.796875" fill="#304560"/>
<rect x="8.76562" y="21.5156" width="0.796875" height="0.796875" fill="#D0AC86"/>
<rect x="59.7656" y="21.5156" width="0.796875" height="0.796875" fill="#D0AC86"/>
<rect x="85.2656" y="21.5156" width="0.796875" height="0.796875" fill="#D0AC86"/>
<rect x="34.2656" y="20.7188" width="0.796875" height="0.796875" fill="#D0AC86"/>
<rect x="9.5625" y="21.5156" width="0.796875" height="0.796875" fill="#D0AC86"/>
<rect x="60.5625" y="21.5156" width="0.796875" height="0.796875" fill="#D0AC86"/>
<rect x="35.0625" y="20.7188" width="0.796875" height="0.796875" fill="#D0AC86"/>
<rect x="9.5625" y="20.7188" width="0.796875" height="0.796875" fill="#D0AC86"/>
<rect x="60.5625" y="20.7188" width="0.796875" height="0.796875" fill="#D0AC86"/>
<rect x="35.0625" y="19.9219" width="0.796875" height="0.796875" fill="#D0AC86"/>
<rect x="34.2656" y="19.9219" width="0.796875" height="0.796875" fill="#D0AC86"/>
<rect x="15.1406" y="20.7188" width="0.796875" height="0.796875" fill="#D0AC86"/>
<rect x="66.1406" y="20.7188" width="0.796875" height="0.796875" fill="#D0AC86"/>
<rect x="91.6406" y="19.9219" width="0.796875" height="0.796875" fill="#D0AC86"/>
<rect x="92.4375" y="19.9219" width="0.796875" height="0.796875" fill="#D0AC86"/>
<rect x="11.1562" y="18.3281" width="0.796875" height="0.796875" fill="#D0AC86"/>
<rect x="62.1562" y="18.3281" width="0.796875" height="0.796875" fill="#D0AC86"/>
<rect x="87.6562" y="18.3281" width="0.796875" height="0.796875" fill="#D0AC86"/>
<rect x="36.6562" y="18.3281" width="0.796875" height="0.796875" fill="#D0AC86"/>
<rect x="11.1562" y="17.5312" width="0.796875" height="0.796875" fill="#D0AC86"/>
<rect x="62.1562" y="17.5312" width="0.796875" height="0.796875" fill="#D0AC86"/>
<rect x="87.6562" y="17.5312" width="0.796875" height="0.796875" fill="#D0AC86"/>
<rect x="36.6562" y="17.5312" width="0.796875" height="0.796875" fill="#D0AC86"/>
<rect x="11.9531" y="17.5312" width="0.796875" height="0.796875" fill="#D0AC86"/>
<rect x="62.9531" y="17.5312" width="0.796875" height="0.796875" fill="#D0AC86"/>
<rect x="88.4531" y="17.5312" width="0.796875" height="0.796875" fill="#D0AC86"/>
<rect x="37.4531" y="17.5312" width="0.796875" height="0.796875" fill="#D0AC86"/>
<rect x="11.9531" y="16.7344" width="0.796875" height="0.796875" fill="#D0AC86"/>
<rect x="62.9531" y="16.7344" width="0.796875" height="0.796875" fill="#D0AC86"/>
<rect x="88.4531" y="16.7344" width="0.796875" height="0.796875" fill="#D0AC86"/>
<rect x="37.4531" y="16.7344" width="0.796875" height="0.796875" fill="#D0AC86"/>
<rect x="11.9531" y="15.9375" width="0.796875" height="0.796875" fill="#D0AC86"/>
<rect x="62.9531" y="15.9375" width="0.796875" height="0.796875" fill="#D0AC86"/>
<rect x="88.4531" y="15.9375" width="0.796875" height="0.796875" fill="#D0AC86"/>
<rect x="37.4531" y="15.9375" width="0.796875" height="0.796875" fill="#D0AC86"/>
<rect x="11.1562" y="15.9375" width="0.796875" height="0.796875" fill="#D0AC86"/>
<rect x="62.1562" y="15.9375" width="0.796875" height="0.796875" fill="#D0AC86"/>
<rect x="87.6562" y="15.9375" width="0.796875" height="0.796875" fill="#D0AC86"/>
<rect x="36.6562" y="15.9375" width="0.796875" height="0.796875" fill="#D0AC86"/>
<rect x="11.1562" y="16.7344" width="0.796875" height="0.796875" fill="#D0AC86"/>
<rect x="62.1562" y="16.7344" width="0.796875" height="0.796875" fill="#D0AC86"/>
<rect x="87.6562" y="16.7344" width="0.796875" height="0.796875" fill="#D0AC86"/>
<rect x="36.6562" y="16.7344" width="0.796875" height="0.796875" fill="#D0AC86"/>
<rect x="13.5469" y="17.5312" width="0.796875" height="0.796875" fill="#D0AC86"/>
<rect x="64.5469" y="17.5312" width="0.796875" height="0.796875" fill="#D0AC86"/>
<rect x="90.0469" y="17.5312" width="0.796875" height="0.796875" fill="#D0AC86"/>
<rect x="39.0469" y="17.5312" width="0.796875" height="0.796875" fill="#D0AC86"/>
<rect x="13.5469" y="16.7344" width="0.796875" height="0.796875" fill="#D0AC86"/>
<rect x="64.5469" y="16.7344" width="0.796875" height="0.796875" fill="#D0AC86"/>
<rect x="90.0469" y="16.7344" width="0.796875" height="0.796875" fill="#D0AC86"/>
<rect x="39.0469" y="16.7344" width="0.796875" height="0.796875" fill="#D0AC86"/>
<rect x="12.75" y="17.5312" width="0.796875" height="0.796875" fill="#D0AC86"/>
<rect x="63.75" y="17.5312" width="0.796875" height="0.796875" fill="#D0AC86"/>
<rect x="89.25" y="17.5312" width="0.796875" height="0.796875" fill="#D0AC86"/>
<rect x="38.25" y="17.5312" width="0.796875" height="0.796875" fill="#D0AC86"/>
<rect x="12.75" y="16.7344" width="0.796875" height="0.796875" fill="#D0AC86"/>
<rect x="63.75" y="16.7344" width="0.796875" height="0.796875" fill="#D0AC86"/>
<rect x="89.25" y="16.7344" width="0.796875" height="0.796875" fill="#D0AC86"/>
<rect x="38.25" y="16.7344" width="0.796875" height="0.796875" fill="#D0AC86"/>
<rect x="12.75" y="15.9375" width="0.796875" height="0.796875" fill="#D0AC86"/>
<rect x="63.75" y="15.9375" width="0.796875" height="0.796875" fill="#D0AC86"/>
<rect x="89.25" y="15.9375" width="0.796875" height="0.796875" fill="#D0AC86"/>
<rect x="38.25" y="15.9375" width="0.796875" height="0.796875" fill="#D0AC86"/>
<rect x="13.5469" y="15.1406" width="0.796875" height="0.796875" fill="#D0AC86"/>
<rect x="64.5469" y="15.1406" width="0.796875" height="0.796875" fill="#D0AC86"/>
<rect x="90.0469" y="15.1406" width="0.796875" height="0.796875" fill="#D0AC86"/>
<rect x="39.0469" y="15.1406" width="0.796875" height="0.796875" fill="#D0AC86"/>
<rect x="13.5469" y="14.3438" width="0.796875" height="0.796875" fill="#D0AC86"/>
<rect x="64.5469" y="14.3438" width="0.796875" height="0.796875" fill="#D0AC86"/>
<rect x="90.0469" y="14.3438" width="0.796875" height="0.796875" fill="#D0AC86"/>
<rect x="39.0469" y="14.3438" width="0.796875" height="0.796875" fill="#D0AC86"/>
<rect x="14.3438" y="14.3438" width="0.796875" height="0.796875" fill="#D0AC86"/>
<rect x="65.3438" y="14.3438" width="0.796875" height="0.796875" fill="#D0AC86"/>
<rect x="90.8438" y="14.3438" width="0.796875" height="0.796875" fill="#D0AC86"/>
<rect x="39.8438" y="14.3438" width="0.796875" height="0.796875" fill="#D0AC86"/>
<rect x="15.1406" y="14.3438" width="0.796875" height="0.796875" fill="#D0AC86"/>
<rect x="66.1406" y="14.3438" width="0.796875" height="0.796875" fill="#D0AC86"/>
<rect x="91.6406" y="14.3438" width="0.796875" height="0.796875" fill="#D0AC86"/>
<rect x="40.6406" y="14.3438" width="0.796875" height="0.796875" fill="#D0AC86"/>
<rect x="15.9375" y="13.5469" width="0.796875" height="0.796875" fill="#D0AC86"/>
<rect x="66.9375" y="13.5469" width="0.796875" height="0.796875" fill="#D0AC86"/>
<rect x="92.4375" y="13.5469" width="0.796875" height="0.796875" fill="#D0AC86"/>
<rect x="41.4375" y="13.5469" width="0.796875" height="0.796875" fill="#D0AC86"/>
<rect x="15.9375" y="14.3438" width="0.796875" height="0.796875" fill="#D0AC86"/>
<rect x="66.9375" y="14.3438" width="0.796875" height="0.796875" fill="#D0AC86"/>
<rect x="92.4375" y="14.3438" width="0.796875" height="0.796875" fill="#D0AC86"/>
<rect x="41.4375" y="14.3438" width="0.796875" height="0.796875" fill="#D0AC86"/>
<rect x="15.9375" y="15.1406" width="0.796875" height="0.796875" fill="#D0AC86"/>
<rect x="66.9375" y="15.1406" width="0.796875" height="0.796875" fill="#D0AC86"/>
<rect x="92.4375" y="15.1406" width="0.796875" height="0.796875" fill="#D0AC86"/>
<rect x="41.4375" y="15.1406" width="0.796875" height="0.796875" fill="#D0AC86"/>
<rect x="13.5469" y="15.9375" width="0.796875" height="0.796875" fill="#D0AC86"/>
<rect x="64.5469" y="15.9375" width="0.796875" height="0.796875" fill="#D0AC86"/>
<rect x="90.0469" y="15.9375" width="0.796875" height="0.796875" fill="#D0AC86"/>
<rect x="39.0469" y="15.9375" width="0.796875" height="0.796875" fill="#D0AC86"/>
<rect x="12.75" y="15.1406" width="0.796875" height="0.796875" fill="#D0AC86"/>
<rect x="63.75" y="15.1406" width="0.796875" height="0.796875" fill="#D0AC86"/>
<rect x="89.25" y="15.1406" width="0.796875" height="0.796875" fill="#D0AC86"/>
<rect x="38.25" y="15.1406" width="0.796875" height="0.796875" fill="#D0AC86"/>
<rect x="12.75" y="14.3438" width="0.796875" height="0.796875" fill="#D0AC86"/>
<rect x="63.75" y="14.3438" width="0.796875" height="0.796875" fill="#D0AC86"/>
<rect x="89.25" y="14.3438" width="0.796875" height="0.796875" fill="#D0AC86"/>
<rect x="38.25" y="14.3438" width="0.796875" height="0.796875" fill="#D0AC86"/>
<rect x="11.9531" y="15.1406" width="0.796875" height="0.796875" fill="#D0AC86"/>
<rect x="62.9531" y="15.1406" width="0.796875" height="0.796875" fill="#D0AC86"/>
<rect x="88.4531" y="15.1406" width="0.796875" height="0.796875" fill="#D0AC86"/>
<rect x="37.4531" y="15.1406" width="0.796875" height="0.796875" fill="#D0AC86"/>
<rect x="11.1562" y="15.1406" width="0.796875" height="0.796875" fill="#D0AC86"/>
<rect x="62.1562" y="15.1406" width="0.796875" height="0.796875" fill="#D0AC86"/>
<rect x="87.6562" y="15.1406" width="0.796875" height="0.796875" fill="#D0AC86"/>
<rect x="36.6562" y="15.1406" width="0.796875" height="0.796875" fill="#D0AC86"/>
<rect x="11.1562" y="14.3438" width="0.796875" height="0.796875" fill="#D0AC86"/>
<rect x="62.1562" y="14.3438" width="0.796875" height="0.796875" fill="#D0AC86"/>
<rect x="87.6562" y="14.3438" width="0.796875" height="0.796875" fill="#D0AC86"/>
<rect x="36.6562" y="14.3438" width="0.796875" height="0.796875" fill="#D0AC86"/>
<rect x="10.3594" y="14.3438" width="0.796875" height="0.796875" fill="#D0AC86"/>
<rect x="61.3594" y="14.3438" width="0.796875" height="0.796875" fill="#D0AC86"/>
<rect x="86.8594" y="14.3438" width="0.796875" height="0.796875" fill="#D0AC86"/>
<rect x="35.8594" y="14.3438" width="0.796875" height="0.796875" fill="#D0AC86"/>
<rect x="14.3438" y="17.5312" width="0.796875" height="0.796875" fill="#D0AC86"/>
<rect x="65.3438" y="17.5312" width="0.796875" height="0.796875" fill="#D0AC86"/>
<rect x="90.8438" y="17.5312" width="0.796875" height="0.796875" fill="#D0AC86"/>
<rect x="39.8438" y="17.5312" width="0.796875" height="0.796875" fill="#D0AC86"/>
<rect x="15.1406" y="17.5312" width="0.796875" height="0.796875" fill="#D0AC86"/>
<rect x="66.1406" y="17.5312" width="0.796875" height="0.796875" fill="#D0AC86"/>
<rect x="91.6406" y="17.5312" width="0.796875" height="0.796875" fill="#D0AC86"/>
<rect x="40.6406" y="17.5312" width="0.796875" height="0.796875" fill="#D0AC86"/>
<rect x="15.1406" y="16.7344" width="0.796875" height="0.796875" fill="#D0AC86"/>
<rect x="66.1406" y="16.7344" width="0.796875" height="0.796875" fill="#D0AC86"/>
<rect x="91.6406" y="16.7344" width="0.796875" height="0.796875" fill="#D0AC86"/>
<rect x="40.6406" y="16.7344" width="0.796875" height="0.796875" fill="#D0AC86"/>
<rect x="15.1406" y="15.9375" width="0.796875" height="0.796875" fill="#D0AC86"/>
<rect x="66.1406" y="15.9375" width="0.796875" height="0.796875" fill="#D0AC86"/>
<rect x="91.6406" y="15.9375" width="0.796875" height="0.796875" fill="#D0AC86"/>
<rect x="40.6406" y="15.9375" width="0.796875" height="0.796875" fill="#D0AC86"/>
<rect x="15.1406" y="15.1406" width="0.796875" height="0.796875" fill="#C79E73"/>
<rect x="66.1406" y="15.1406" width="0.796875" height="0.796875" fill="#C79E73"/>
<rect x="91.6406" y="15.1406" width="0.796875" height="0.796875" fill="#C79E73"/>
<rect x="40.6406" y="15.1406" width="0.796875" height="0.796875" fill="#C79E73"/>
<rect x="15.9375" y="15.9375" width="0.796875" height="0.796875" fill="#C79E73"/>
<rect x="66.9375" y="15.9375" width="0.796875" height="0.796875" fill="#C79E73"/>
<rect x="92.4375" y="15.9375" width="0.796875" height="0.796875" fill="#C79E73"/>
<rect x="41.4375" y="15.9375" width="0.796875" height="0.796875" fill="#C79E73"/>
<rect x="15.9375" y="16.7344" width="0.796875" height="0.796875" fill="#C79E73"/>
<rect x="66.9375" y="16.7344" width="0.796875" height="0.796875" fill="#C79E73"/>
<rect x="92.4375" y="16.7344" width="0.796875" height="0.796875" fill="#C79E73"/>
<rect x="41.4375" y="16.7344" width="0.796875" height="0.796875" fill="#C79E73"/>
<rect x="15.9375" y="17.5312" width="0.796875" height="0.796875" fill="#C79E73"/>
<rect x="66.9375" y="17.5312" width="0.796875" height="0.796875" fill="#C79E73"/>
<rect x="92.4375" y="17.5312" width="0.796875" height="0.796875" fill="#C79E73"/>
<rect x="41.4375" y="17.5312" width="0.796875" height="0.796875" fill="#C79E73"/>
<rect x="15.9375" y="18.3281" width="0.796875" height="0.796875" fill="#C79E73"/>
<rect x="66.9375" y="18.3281" width="0.796875" height="0.796875" fill="#C79E73"/>
<rect x="92.4375" y="18.3281" width="0.796875" height="0.796875" fill="#C79E73"/>
<rect x="41.4375" y="18.3281" width="0.796875" height="0.796875" fill="#C79E73"/>
<rect x="14.3438" y="18.3281" width="0.796875" height="0.796875" fill="#C79E73"/>
<rect x="65.3438" y="18.3281" width="0.796875" height="0.796875" fill="#C79E73"/>
<rect x="90.8438" y="18.3281" width="0.796875" height="0.796875" fill="#C79E73"/>
<rect x="39.8438" y="18.3281" width="0.796875" height="0.796875" fill="#C79E73"/>
<rect x="13.5469" y="18.3281" width="0.796875" height="0.796875" fill="#C79E73"/>
<rect x="64.5469" y="18.3281" width="0.796875" height="0.796875" fill="#C79E73"/>
<rect x="90.0469" y="18.3281" width="0.796875" height="0.796875" fill="#C79E73"/>
<rect x="39.0469" y="18.3281" width="0.796875" height="0.796875" fill="#C79E73"/>
<rect x="13.5469" y="19.125" width="0.796875" height="0.796875" fill="#C79E73"/>
<rect x="64.5469" y="19.125" width="0.796875" height="0.796875" fill="#C79E73"/>
<rect x="90.0469" y="19.125" width="0.796875" height="0.796875" fill="#C79E73"/>
<rect x="39.0469" y="19.125" width="0.796875" height="0.796875" fill="#C79E73"/>
<rect x="12.75" y="19.125" width="0.796875" height="0.796875" fill="#C79E73"/>
<rect x="63.75" y="19.125" width="0.796875" height="0.796875" fill="#C79E73"/>
<rect x="89.25" y="19.125" width="0.796875" height="0.796875" fill="#C79E73"/>
<rect x="38.25" y="19.125" width="0.796875" height="0.796875" fill="#C79E73"/>
<rect x="11.9531" y="19.125" width="0.796875" height="0.796875" fill="#C79E73"/>
<rect x="62.9531" y="19.125" width="0.796875" height="0.796875" fill="#C79E73"/>
<rect x="88.4531" y="19.125" width="0.796875" height="0.796875" fill="#C79E73"/>
<rect x="37.4531" y="19.125" width="0.796875" height="0.796875" fill="#C79E73"/>
<rect x="11.1562" y="19.125" width="0.796875" height="0.796875" fill="#C79E73"/>
<rect x="62.1562" y="19.125" width="0.796875" height="0.796875" fill="#C79E73"/>
<rect x="87.6562" y="19.125" width="0.796875" height="0.796875" fill="#C79E73"/>
<rect x="36.6562" y="19.125" width="0.796875" height="0.796875" fill="#C79E73"/>
<rect x="15.1406" y="18.3281" width="0.796875" height="0.796875" fill="#C79E73"/>
<rect x="66.1406" y="18.3281" width="0.796875" height="0.796875" fill="#C79E73"/>
<rect x="91.6406" y="18.3281" width="0.796875" height="0.796875" fill="#C79E73"/>
<rect x="40.6406" y="18.3281" width="0.796875" height="0.796875" fill="#C79E73"/>
<rect x="10.3594" y="18.3281" width="0.796875" height="0.796875" fill="#D0AC86"/>
<rect x="61.3594" y="18.3281" width="0.796875" height="0.796875" fill="#D0AC86"/>
<rect x="86.8594" y="18.3281" width="0.796875" height="0.796875" fill="#D0AC86"/>
<rect x="35.8594" y="18.3281" width="0.796875" height="0.796875" fill="#D0AC86"/>
<rect x="9.5625" y="18.3281" width="0.796875" height="0.796875" fill="#D0AC86"/>
<rect x="60.5625" y="18.3281" width="0.796875" height="0.796875" fill="#D0AC86"/>
<rect x="86.0625" y="18.3281" width="0.796875" height="0.796875" fill="#D0AC86"/>
<rect x="35.0625" y="18.3281" width="0.796875" height="0.796875" fill="#D0AC86"/>
<rect x="9.5625" y="17.5312" width="0.796875" height="0.796875" fill="#D0AC86"/>
<rect x="60.5625" y="17.5312" width="0.796875" height="0.796875" fill="#D0AC86"/>
<rect x="86.0625" y="17.5312" width="0.796875" height="0.796875" fill="#D0AC86"/>
<rect x="35.0625" y="17.5312" width="0.796875" height="0.796875" fill="#D0AC86"/>
<rect x="9.5625" y="16.7344" width="0.796875" height="0.796875" fill="#D0AC86"/>
<rect x="60.5625" y="16.7344" width="0.796875" height="0.796875" fill="#D0AC86"/>
<rect x="86.0625" y="16.7344" width="0.796875" height="0.796875" fill="#D0AC86"/>
<rect x="35.0625" y="16.7344" width="0.796875" height="0.796875" fill="#D0AC86"/>
<rect x="9.5625" y="15.9375" width="0.796875" height="0.796875" fill="#D0AC86"/>
<rect x="60.5625" y="15.9375" width="0.796875" height="0.796875" fill="#D0AC86"/>
<rect x="86.0625" y="15.9375" width="0.796875" height="0.796875" fill="#D0AC86"/>
<rect x="35.0625" y="15.9375" width="0.796875" height="0.796875" fill="#D0AC86"/>
<rect x="9.5625" y="15.1406" width="0.796875" height="0.796875" fill="#D0AC86"/>
<rect x="60.5625" y="15.1406" width="0.796875" height="0.796875" fill="#D0AC86"/>
<rect x="86.0625" y="15.1406" width="0.796875" height="0.796875" fill="#D0AC86"/>
<rect x="35.0625" y="15.1406" width="0.796875" height="0.796875" fill="#D0AC86"/>
<rect x="8.76562" y="16.7344" width="0.796875" height="0.796875" fill="#E1BB93"/>
<rect x="59.7656" y="16.7344" width="0.796875" height="0.796875" fill="#E1BB93"/>
<rect x="85.2656" y="16.7344" width="0.796875" height="0.796875" fill="#E1BB93"/>
<rect x="34.2656" y="16.7344" width="0.796875" height="0.796875" fill="#E1BB93"/>
<rect x="8.76562" y="15.9375" width="0.796875" height="0.796875" fill="#E1BB93"/>
<rect x="59.7656" y="15.9375" width="0.796875" height="0.796875" fill="#E1BB93"/>
<rect x="85.2656" y="15.9375" width="0.796875" height="0.796875" fill="#E1BB93"/>
<rect x="34.2656" y="15.9375" width="0.796875" height="0.796875" fill="#E1BB93"/>
<rect x="8.76562" y="15.1406" width="0.796875" height="0.796875" fill="#E1BB93"/>
<rect x="59.7656" y="15.1406" width="0.796875" height="0.796875" fill="#E1BB93"/>
<rect x="85.2656" y="15.1406" width="0.796875" height="0.796875" fill="#E1BB93"/>
<rect x="34.2656" y="15.1406" width="0.796875" height="0.796875" fill="#E1BB93"/>
<rect x="8.76562" y="14.3438" width="0.796875" height="0.796875" fill="#E1BB93"/>
<rect x="59.7656" y="14.3438" width="0.796875" height="0.796875" fill="#E1BB93"/>
<rect x="85.2656" y="14.3438" width="0.796875" height="0.796875" fill="#E1BB93"/>
<rect x="34.2656" y="14.3438" width="0.796875" height="0.796875" fill="#E1BB93"/>
<rect x="9.5625" y="13.5469" width="0.796875" height="0.796875" fill="#E1BB93"/>
<rect x="60.5625" y="13.5469" width="0.796875" height="0.796875" fill="#E1BB93"/>
<rect x="86.0625" y="13.5469" width="0.796875" height="0.796875" fill="#E1BB93"/>
<rect x="35.0625" y="13.5469" width="0.796875" height="0.796875" fill="#E1BB93"/>
<rect x="9.5625" y="14.3438" width="0.796875" height="0.796875" fill="#E1BB93"/>
<rect x="60.5625" y="14.3438" width="0.796875" height="0.796875" fill="#E1BB93"/>
<rect x="86.0625" y="14.3438" width="0.796875" height="0.796875" fill="#E1BB93"/>
<rect x="35.0625" y="14.3438" width="0.796875" height="0.796875" fill="#E1BB93"/>
<rect x="10.3594" y="13.5469" width="0.796875" height="0.796875" fill="#E1BB93"/>
<rect x="61.3594" y="13.5469" width="0.796875" height="0.796875" fill="#E1BB93"/>
<rect x="86.8594" y="13.5469" width="0.796875" height="0.796875" fill="#E1BB93"/>
<rect x="35.8594" y="13.5469" width="0.796875" height="0.796875" fill="#E1BB93"/>
<rect x="13.5469" y="13.5469" width="0.796875" height="0.796875" fill="#E1BB93"/>
<rect x="64.5469" y="13.5469" width="0.796875" height="0.796875" fill="#E1BB93"/>
<rect x="90.0469" y="13.5469" width="0.796875" height="0.796875" fill="#E1BB93"/>
<rect x="39.0469" y="13.5469" width="0.796875" height="0.796875" fill="#E1BB93"/>
<rect x="15.9375" y="12.75" width="0.796875" height="0.796875" fill="#E1BB93"/>
<rect x="66.9375" y="12.75" width="0.796875" height="0.796875" fill="#E1BB93"/>
<rect x="92.4375" y="12.75" width="0.796875" height="0.796875" fill="#E1BB93"/>
<rect x="41.4375" y="12.75" width="0.796875" height="0.796875" fill="#E1BB93"/>
<rect x="15.1406" y="13.5469" width="0.796875" height="0.796875" fill="#E1BB93"/>
<rect x="66.1406" y="13.5469" width="0.796875" height="0.796875" fill="#E1BB93"/>
<rect x="91.6406" y="13.5469" width="0.796875" height="0.796875" fill="#E1BB93"/>
<rect x="40.6406" y="13.5469" width="0.796875" height="0.796875" fill="#E1BB93"/>
<rect x="10.3594" y="17.5312" width="0.796875" height="0.796875" fill="#D0AC86"/>
<rect x="61.3594" y="17.5312" width="0.796875" height="0.796875" fill="#D0AC86"/>
<rect x="86.8594" y="17.5312" width="0.796875" height="0.796875" fill="#D0AC86"/>
<rect x="35.8594" y="17.5312" width="0.796875" height="0.796875" fill="#D0AC86"/>
<rect x="8.76562" y="17.5312" width="0.796875" height="0.796875" fill="#D0AC86"/>
<rect x="59.7656" y="17.5312" width="0.796875" height="0.796875" fill="#D0AC86"/>
<rect x="85.2656" y="17.5312" width="0.796875" height="0.796875" fill="#D0AC86"/>
<rect x="34.2656" y="17.5312" width="0.796875" height="0.796875" fill="#D0AC86"/>
<rect x="8.76562" y="18.3281" width="0.796875" height="0.796875" fill="#D0AC86"/>
<rect x="59.7656" y="18.3281" width="0.796875" height="0.796875" fill="#D0AC86"/>
<rect x="85.2656" y="18.3281" width="0.796875" height="0.796875" fill="#D0AC86"/>
<rect x="34.2656" y="18.3281" width="0.796875" height="0.796875" fill="#D0AC86"/>
<rect x="15.1406" y="21.5156" width="0.796875" height="0.796875" fill="#D0AC86"/>
<rect x="66.1406" y="21.5156" width="0.796875" height="0.796875" fill="#D0AC86"/>
<rect x="91.6406" y="20.7188" width="0.796875" height="0.796875" fill="#D0AC86"/>
<rect x="15.9375" y="21.5156" width="0.796875" height="0.796875" fill="#D0AC86"/>
<rect x="66.9375" y="21.5156" width="0.796875" height="0.796875" fill="#D0AC86"/>
<rect x="92.4375" y="20.7188" width="0.796875" height="0.796875" fill="#D0AC86"/>
<rect x="41.4375" y="21.5156" width="0.796875" height="0.796875" fill="#D0AC86"/>
<rect x="11.1562" y="23.9062" width="0.796875" height="0.796875" fill="#304560"/>
<rect x="62.1562" y="23.9062" width="0.796875" height="0.796875" fill="#304560"/>
<rect x="36.6562" y="23.9062" width="0.796875" height="0.796875" fill="#304560"/>
<rect x="10.3594" y="23.9062" width="0.796875" height="0.796875" fill="#304560"/>
<rect x="61.3594" y="23.9062" width="0.796875" height="0.796875" fill="#304560"/>
<rect x="35.8594" y="23.9062" width="0.796875" height="0.796875" fill="#304560"/>
<rect x="9.5625" y="23.9062" width="0.796875" height="0.796875" fill="#304560"/>
<rect x="60.5625" y="23.9062" width="0.796875" height="0.796875" fill="#304560"/>
<rect x="35.0625" y="23.9062" width="0.796875" height="0.796875" fill="#304560"/>
<rect x="9.5625" y="23.1094" width="0.796875" height="0.796875" fill="#304560"/>
<rect x="60.5625" y="23.1094" width="0.796875" height="0.796875" fill="#304560"/>
<rect x="86.0625" y="23.1094" width="0.796875" height="0.796875" fill="#304560"/>
<rect x="35.0625" y="23.1094" width="0.796875" height="0.796875" fill="#304560"/>
<rect x="35.0625" y="22.3125" width="0.796875" height="0.796875" fill="#304560"/>
<rect x="9.5625" y="22.3125" width="0.796875" height="0.796875" fill="black"/>
<rect x="60.5625" y="22.3125" width="0.796875" height="0.796875" fill="black"/>
<rect x="86.0625" y="22.3125" width="0.796875" height="0.796875" fill="black"/>
<rect x="35.0625" y="21.5156" width="0.796875" height="0.796875" fill="black"/>
<rect x="9.5625" y="19.9219" width="0.796875" height="0.796875" fill="black"/>
<rect x="60.5625" y="19.9219" width="0.796875" height="0.796875" fill="black"/>
<rect x="86.0625" y="19.9219" width="0.796875" height="0.796875" fill="black"/>
<rect x="11.1562" y="19.9219" width="0.796875" height="0.796875" fill="black"/>
<rect x="62.1562" y="19.9219" width="0.796875" height="0.796875" fill="black"/>
<rect x="87.6562" y="19.9219" width="0.796875" height="0.796875" fill="black"/>
<rect x="36.6562" y="19.9219" width="0.796875" height="0.796875" fill="black"/>
<rect x="11.9531" y="19.9219" width="0.796875" height="0.796875" fill="black"/>
<rect x="62.9531" y="19.9219" width="0.796875" height="0.796875" fill="black"/>
<rect x="88.4531" y="19.9219" width="0.796875" height="0.796875" fill="black"/>
<rect x="37.4531" y="19.9219" width="0.796875" height="0.796875" fill="black"/>
<rect x="12.75" y="19.9219" width="0.796875" height="0.796875" fill="black"/>
<rect x="63.75" y="19.9219" width="0.796875" height="0.796875" fill="black"/>
<rect x="89.25" y="19.9219" width="0.796875" height="0.796875" fill="black"/>
<rect x="38.25" y="19.9219" width="0.796875" height="0.796875" fill="black"/>
<rect x="13.5469" y="19.9219" width="0.796875" height="0.796875" fill="black"/>
<rect x="64.5469" y="19.9219" width="0.796875" height="0.796875" fill="black"/>
<rect x="90.0469" y="19.9219" width="0.796875" height="0.796875" fill="black"/>
<rect x="39.0469" y="19.9219" width="0.796875" height="0.796875" fill="black"/>
<rect x="9.5625" y="19.125" width="0.796875" height="0.796875" fill="black"/>
<rect x="60.5625" y="19.125" width="0.796875" height="0.796875" fill="black"/>
<rect x="86.0625" y="19.125" width="0.796875" height="0.796875" fill="black"/>
<rect x="35.0625" y="19.125" width="0.796875" height="0.796875" fill="black"/>
<rect x="7.96875" y="18.3281" width="0.796875" height="0.796875" fill="black"/>
<rect x="58.9688" y="18.3281" width="0.796875" height="0.796875" fill="black"/>
<rect x="84.4688" y="18.3281" width="0.796875" height="0.796875" fill="black"/>
<rect x="33.4688" y="18.3281" width="0.796875" height="0.796875" fill="black"/>
<rect x="8.76562" y="19.125" width="0.796875" height="0.796875" fill="black"/>
<rect x="59.7656" y="19.125" width="0.796875" height="0.796875" fill="black"/>
<rect x="85.2656" y="19.125" width="0.796875" height="0.796875" fill="black"/>
<rect x="34.2656" y="19.125" width="0.796875" height="0.796875" fill="black"/>
<rect x="7.96875" y="17.5312" width="0.796875" height="0.796875" fill="black"/>
<rect x="58.9688" y="17.5312" width="0.796875" height="0.796875" fill="black"/>
<rect x="84.4688" y="17.5312" width="0.796875" height="0.796875" fill="black"/>
<rect x="33.4688" y="17.5312" width="0.796875" height="0.796875" fill="black"/>
<rect x="7.96875" y="16.7344" width="0.796875" height="0.796875" fill="black"/>
<rect x="58.9688" y="16.7344" width="0.796875" height="0.796875" fill="black"/>
<rect x="84.4688" y="16.7344" width="0.796875" height="0.796875" fill="black"/>
<rect x="33.4688" y="16.7344" width="0.796875" height="0.796875" fill="black"/>
<path d="M7.96875 15.9375H8.76562V16.7344H7.96875V15.9375Z" fill="black"/>
<path d="M58.9688 15.9375H59.7656V16.7344H58.9688V15.9375Z" fill="black"/>
<path d="M84.4688 15.9375H85.2656V16.7344H84.4688V15.9375Z" fill="black"/>
<path d="M33.4688 15.9375H34.2656V16.7344H33.4688V15.9375Z" fill="black"/>
<rect x="7.96875" y="15.1406" width="0.796875" height="0.796875" fill="black"/>
<rect x="58.9688" y="15.1406" width="0.796875" height="0.796875" fill="black"/>
<rect x="84.4688" y="15.1406" width="0.796875" height="0.796875" fill="black"/>
<rect x="33.4688" y="15.1406" width="0.796875" height="0.796875" fill="black"/>
<rect x="7.96875" y="14.3438" width="0.796875" height="0.796875" fill="black"/>
<rect x="58.9688" y="14.3438" width="0.796875" height="0.796875" fill="black"/>
<rect x="84.4688" y="14.3438" width="0.796875" height="0.796875" fill="black"/>
<rect x="33.4688" y="14.3438" width="0.796875" height="0.796875" fill="black"/>
<rect x="10.3594" y="16.7344" width="0.796875" height="0.796875" fill="black"/>
<rect x="61.3594" y="16.7344" width="0.796875" height="0.796875" fill="black"/>
<rect x="86.8594" y="16.7344" width="0.796875" height="0.796875" fill="black"/>
<rect x="35.8594" y="16.7344" width="0.796875" height="0.796875" fill="black"/>
<rect x="10.3594" y="15.1406" width="0.796875" height="0.796875" fill="black"/>
<rect x="61.3594" y="15.1406" width="0.796875" height="0.796875" fill="black"/>
<rect x="86.8594" y="15.1406" width="0.796875" height="0.796875" fill="black"/>
<rect x="35.8594" y="15.1406" width="0.796875" height="0.796875" fill="black"/>
<rect x="14.3438" y="16.7344" width="0.796875" height="0.796875" fill="black"/>
<rect x="65.3438" y="16.7344" width="0.796875" height="0.796875" fill="black"/>
<rect x="90.8438" y="16.7344" width="0.796875" height="0.796875" fill="black"/>
<rect x="39.8438" y="16.7344" width="0.796875" height="0.796875" fill="black"/>
<rect x="14.3438" y="15.1406" width="0.796875" height="0.796875" fill="black"/>
<rect x="65.3438" y="15.1406" width="0.796875" height="0.796875" fill="black"/>
<rect x="90.8438" y="15.1406" width="0.796875" height="0.796875" fill="black"/>
<rect x="39.8438" y="15.1406" width="0.796875" height="0.796875" fill="black"/>
<rect x="12.75" y="18.3281" width="0.796875" height="0.796875" fill="#C89090" fill-opacity="0.9"/>
<rect x="63.75" y="18.3281" width="0.796875" height="0.796875" fill="#C89090" fill-opacity="0.9"/>
<rect x="89.25" y="18.3281" width="0.796875" height="0.796875" fill="#C89090" fill-opacity="0.9"/>
<rect x="38.25" y="18.3281" width="0.796875" height="0.796875" fill="#C89090" fill-opacity="0.9"/>
<rect x="11.9531" y="18.3281" width="0.796875" height="0.796875" fill="#C89090" fill-opacity="0.9"/>
<rect x="62.9531" y="18.3281" width="0.796875" height="0.796875" fill="#C89090" fill-opacity="0.9"/>
<rect x="88.4531" y="18.3281" width="0.796875" height="0.796875" fill="#C89090" fill-opacity="0.9"/>
<rect x="37.4531" y="18.3281" width="0.796875" height="0.796875" fill="#C89090" fill-opacity="0.9"/>
<rect x="14.3438" y="15.9375" width="0.796875" height="0.796875" fill="black"/>
<rect x="65.3438" y="15.9375" width="0.796875" height="0.796875" fill="black"/>
<rect x="90.8438" y="15.9375" width="0.796875" height="0.796875" fill="black"/>
<rect x="39.8438" y="15.9375" width="0.796875" height="0.796875" fill="black"/>
<rect x="10.3594" y="15.9375" width="0.796875" height="0.796875" fill="black"/>
<rect x="61.3594" y="15.9375" width="0.796875" height="0.796875" fill="black"/>
<rect x="86.8594" y="15.9375" width="0.796875" height="0.796875" fill="black"/>
<rect x="35.8594" y="15.9375" width="0.796875" height="0.796875" fill="black"/>
<rect x="10.3594" y="19.125" width="0.796875" height="0.796875" fill="black"/>
<rect x="61.3594" y="19.125" width="0.796875" height="0.796875" fill="black"/>
<rect x="86.8594" y="19.125" width="0.796875" height="0.796875" fill="black"/>
<rect x="35.8594" y="19.125" width="0.796875" height="0.796875" fill="black"/>
<rect x="10.3594" y="22.3125" width="0.796875" height="0.796875" fill="black"/>
<rect x="61.3594" y="22.3125" width="0.796875" height="0.796875" fill="black"/>
<rect x="86.8594" y="22.3125" width="0.796875" height="0.796875" fill="black"/>
<rect x="10.3594" y="21.5156" width="0.796875" height="0.796875" fill="black"/>
<rect x="61.3594" y="21.5156" width="0.796875" height="0.796875" fill="black"/>
<rect x="86.8594" y="21.5156" width="0.796875" height="0.796875" fill="black"/>
<rect x="35.8594" y="21.5156" width="0.796875" height="0.796875" fill="black"/>
<rect x="10.3594" y="20.7188" width="0.796875" height="0.796875" fill="black"/>
<rect x="61.3594" y="20.7188" width="0.796875" height="0.796875" fill="black"/>
<rect x="86.8594" y="20.7188" width="0.796875" height="0.796875" fill="black"/>
<rect x="35.8594" y="20.7188" width="0.796875" height="0.796875" fill="black"/>
<rect x="8.76562" y="20.7188" width="0.796875" height="0.796875" fill="black"/>
<rect x="59.7656" y="20.7188" width="0.796875" height="0.796875" fill="black"/>
<rect x="85.2656" y="20.7188" width="0.796875" height="0.796875" fill="black"/>
<rect x="86.0625" y="20.7188" width="0.796875" height="0.796875" fill="black"/>
<rect x="86.0625" y="21.5156" width="0.796875" height="0.796875" fill="black"/>
<rect x="33.4688" y="19.9219" width="0.796875" height="0.796875" fill="black"/>
<rect x="8.76562" y="22.3125" width="0.796875" height="0.796875" fill="black"/>
<rect x="59.7656" y="22.3125" width="0.796875" height="0.796875" fill="black"/>
<rect x="85.2656" y="22.3125" width="0.796875" height="0.796875" fill="black"/>
<rect x="34.2656" y="21.5156" width="0.796875" height="0.796875" fill="black"/>
<rect x="7.96875" y="21.5156" width="0.796875" height="0.796875" fill="black"/>
<rect x="58.9688" y="21.5156" width="0.796875" height="0.796875" fill="black"/>
<rect x="84.4688" y="21.5156" width="0.796875" height="0.796875" fill="black"/>
<rect x="33.4688" y="20.7188" width="0.796875" height="0.796875" fill="black"/>
</svg>
