<svg width="128" height="32" viewBox="0 0 128 32" fill="none" xmlns="http://www.w3.org/2000/svg">
<rect width="128" height="32" fill="#C4C4C4"/>
<rect width="32" height="32" fill="#FFFD7B"/>
<rect x="64" width="32" height="32" fill="#FFFD7B"/>
<rect x="96" width="32" height="32" fill="#FFFD7B"/>
<rect x="32" width="32" height="32" fill="#FFFD7B"/>
<rect x="15" y="29" width="1" height="1" fill="#304560"/>
<rect x="79" y="29" width="1" height="1" fill="#304560"/>
<rect x="111" y="29" width="1" height="1" fill="#304560"/>
<rect x="47" y="29" width="1" height="1" fill="#304560"/>
<rect x="15" y="28" width="1" height="1" fill="#304560"/>
<rect x="79" y="28" width="1" height="1" fill="#304560"/>
<rect x="111" y="28" width="1" height="1" fill="#304560"/>
<rect x="47" y="28" width="1" height="1" fill="#304560"/>
<rect x="15" y="27" width="1" height="1" fill="black"/>
<rect x="79" y="27" width="1" height="1" fill="black"/>
<rect x="111" y="27" width="1" height="1" fill="black"/>
<rect x="47" y="27" width="1" height="1" fill="black"/>
<rect x="15" y="26" width="1" height="1" fill="black"/>
<rect x="79" y="26" width="1" height="1" fill="black"/>
<rect x="111" y="26" width="1" height="1" fill="black"/>
<rect x="47" y="26" width="1" height="1" fill="black"/>
<rect x="16" y="26" width="1" height="1" fill="black"/>
<rect x="80" y="26" width="1" height="1" fill="black"/>
<rect x="112" y="26" width="1" height="1" fill="black"/>
<rect x="48" y="26" width="1" height="1" fill="black"/>
<rect x="16" y="27" width="1" height="1" fill="black"/>
<rect x="80" y="27" width="1" height="1" fill="black"/>
<rect x="112" y="27" width="1" height="1" fill="black"/>
<rect x="48" y="27" width="1" height="1" fill="black"/>
<rect x="16" y="28" width="1" height="1" fill="#304560"/>
<rect x="80" y="28" width="1" height="1" fill="#304560"/>
<rect x="112" y="28" width="1" height="1" fill="#304560"/>
<rect x="48" y="28" width="1" height="1" fill="#304560"/>
<rect x="17" y="28" width="1" height="1" fill="#304560"/>
<rect x="81" y="28" width="1" height="1" fill="#304560"/>
<rect x="113" y="28" width="1" height="1" fill="#304560"/>
<rect x="49" y="28" width="1" height="1" fill="#304560"/>
<rect width="1" height="1" transform="matrix(1 0 0 -1 17 28)" fill="black"/>
<rect width="1" height="1" transform="matrix(1 0 0 -1 81 28)" fill="black"/>
<rect width="1" height="1" transform="matrix(1 0 0 -1 113 28)" fill="black"/>
<rect width="1" height="1" transform="matrix(1 0 0 -1 49 28)" fill="black"/>
<rect width="1" height="1" transform="matrix(1 0 0 -1 17 27)" fill="black"/>
<rect width="1" height="1" transform="matrix(1 0 0 -1 81 27)" fill="black"/>
<rect width="1" height="1" transform="matrix(1 0 0 -1 113 27)" fill="black"/>
<rect width="1" height="1" transform="matrix(1 0 0 -1 49 27)" fill="black"/>
<rect width="1" height="1" transform="matrix(1 0 0 -1 18 26)" fill="black"/>
<rect width="1" height="1" transform="matrix(1 0 0 -1 82 26)" fill="black"/>
<rect width="1" height="1" transform="matrix(1 0 0 -1 114 26)" fill="black"/>
<rect width="1" height="1" transform="matrix(1 0 0 -1 50 26)" fill="black"/>
<rect x="14" y="26" width="1" height="1" fill="black"/>
<rect x="78" y="26" width="1" height="1" fill="black"/>
<rect x="110" y="26" width="1" height="1" fill="black"/>
<rect x="46" y="26" width="1" height="1" fill="black"/>
<rect x="13" y="25" width="1" height="1" fill="black"/>
<rect x="77" y="25" width="1" height="1" fill="black"/>
<rect x="109" y="25" width="1" height="1" fill="black"/>
<rect x="45" y="25" width="1" height="1" fill="black"/>
<rect x="16" y="29" width="1" height="1" fill="#304560"/>
<rect x="80" y="29" width="1" height="1" fill="#304560"/>
<rect x="112" y="29" width="1" height="1" fill="#304560"/>
<rect x="48" y="29" width="1" height="1" fill="#304560"/>
<rect x="17" y="29" width="1" height="1" fill="#304560"/>
<rect x="81" y="29" width="1" height="1" fill="#304560"/>
<rect x="113" y="29" width="1" height="1" fill="#304560"/>
<rect x="17" y="30" width="1" height="1" fill="#304560"/>
<rect x="81" y="30" width="1" height="1" fill="#304560"/>
<rect x="113" y="30" width="1" height="1" fill="#304560"/>
<rect x="18" y="30" width="1" height="1" fill="#304560"/>
<rect x="82" y="30" width="1" height="1" fill="#304560"/>
<rect x="114" y="30" width="1" height="1" fill="#304560"/>
<rect x="19" y="30" width="1" height="1" fill="#304560"/>
<rect x="83" y="30" width="1" height="1" fill="#304560"/>
<rect x="115" y="30" width="1" height="1" fill="#304560"/>
<rect x="19" y="29" width="1" height="1" fill="#304560"/>
<rect x="83" y="29" width="1" height="1" fill="#304560"/>
<rect x="115" y="29" width="1" height="1" fill="#304560"/>
<rect x="115" y="28" width="1" height="1" fill="#304560"/>
<rect x="114" y="28" width="1" height="1" fill="#304560"/>
<rect x="51" y="29" width="1" height="1" fill="#304560"/>
<rect x="19" y="28" width="1" height="1" fill="black"/>
<rect x="83" y="28" width="1" height="1" fill="black"/>
<rect x="115" y="27" width="1" height="1" fill="black"/>
<rect x="51" y="28" width="1" height="1" fill="black"/>
<rect x="19" y="25" width="1" height="1" fill="black"/>
<rect x="83" y="25" width="1" height="1" fill="black"/>
<rect x="51" y="25" width="1" height="1" fill="black"/>
<rect x="51" y="26" width="1" height="1" fill="black"/>
<rect x="51" y="27" width="1" height="1" fill="black"/>
<rect x="19" y="24" width="1" height="1" fill="black"/>
<rect x="83" y="24" width="1" height="1" fill="black"/>
<rect x="115" y="24" width="1" height="1" fill="black"/>
<rect x="51" y="24" width="1" height="1" fill="black"/>
<rect x="21" y="23" width="1" height="1" fill="black"/>
<rect x="85" y="23" width="1" height="1" fill="black"/>
<rect x="117" y="23" width="1" height="1" fill="black"/>
<rect x="53" y="23" width="1" height="1" fill="black"/>
<rect x="20" y="24" width="1" height="1" fill="black"/>
<rect x="84" y="24" width="1" height="1" fill="black"/>
<rect x="116" y="24" width="1" height="1" fill="black"/>
<rect x="52" y="24" width="1" height="1" fill="black"/>
<rect x="21" y="22" width="1" height="1" fill="black"/>
<rect x="85" y="22" width="1" height="1" fill="black"/>
<rect x="117" y="22" width="1" height="1" fill="black"/>
<rect x="53" y="22" width="1" height="1" fill="black"/>
<rect x="21" y="21" width="1" height="1" fill="black"/>
<rect x="85" y="21" width="1" height="1" fill="black"/>
<rect x="117" y="21" width="1" height="1" fill="black"/>
<rect x="53" y="21" width="1" height="1" fill="black"/>
<rect x="21" y="20" width="1" height="1" fill="black"/>
<rect x="85" y="20" width="1" height="1" fill="black"/>
<rect x="117" y="20" width="1" height="1" fill="black"/>
<rect x="53" y="20" width="1" height="1" fill="black"/>
<rect x="21" y="19" width="1" height="1" fill="black"/>
<rect x="85" y="19" width="1" height="1" fill="black"/>
<rect x="117" y="19" width="1" height="1" fill="black"/>
<rect x="53" y="19" width="1" height="1" fill="black"/>
<rect x="21" y="18" width="1" height="1" fill="black"/>
<rect x="85" y="18" width="1" height="1" fill="black"/>
<rect x="117" y="18" width="1" height="1" fill="black"/>
<rect x="53" y="18" width="1" height="1" fill="black"/>
<rect x="21" y="17" width="1" height="1" fill="black"/>
<rect x="85" y="17" width="1" height="1" fill="black"/>
<rect x="117" y="17" width="1" height="1" fill="black"/>
<rect x="53" y="17" width="1" height="1" fill="black"/>
<rect x="21" y="16" width="1" height="1" fill="black"/>
<rect x="85" y="16" width="1" height="1" fill="black"/>
<rect x="117" y="16" width="1" height="1" fill="black"/>
<rect x="53" y="16" width="1" height="1" fill="black"/>
<rect x="21" y="15" width="1" height="1" fill="black"/>
<rect x="85" y="15" width="1" height="1" fill="black"/>
<rect x="117" y="15" width="1" height="1" fill="black"/>
<rect x="53" y="15" width="1" height="1" fill="black"/>
<rect x="20" y="15" width="1" height="1" fill="black"/>
<rect x="84" y="15" width="1" height="1" fill="black"/>
<rect x="116" y="15" width="1" height="1" fill="black"/>
<rect x="52" y="15" width="1" height="1" fill="black"/>
<rect x="20" y="14" width="1" height="1" fill="black"/>
<rect x="84" y="14" width="1" height="1" fill="black"/>
<rect x="116" y="14" width="1" height="1" fill="black"/>
<rect x="52" y="14" width="1" height="1" fill="black"/>
<rect x="18" y="13" width="1" height="1" fill="black"/>
<rect x="82" y="13" width="1" height="1" fill="black"/>
<rect x="114" y="13" width="1" height="1" fill="black"/>
<rect x="50" y="13" width="1" height="1" fill="black"/>
<rect x="17" y="13" width="1" height="1" fill="black"/>
<rect x="81" y="13" width="1" height="1" fill="black"/>
<rect x="113" y="13" width="1" height="1" fill="black"/>
<rect x="49" y="13" width="1" height="1" fill="black"/>
<rect x="16" y="13" width="1" height="1" fill="black"/>
<rect x="80" y="13" width="1" height="1" fill="black"/>
<rect x="112" y="13" width="1" height="1" fill="black"/>
<rect x="48" y="13" width="1" height="1" fill="black"/>
<rect x="15" y="13" width="1" height="1" fill="black"/>
<rect x="79" y="13" width="1" height="1" fill="black"/>
<rect x="111" y="13" width="1" height="1" fill="black"/>
<rect x="47" y="13" width="1" height="1" fill="black"/>
<rect x="14" y="14" width="1" height="1" fill="black"/>
<rect x="78" y="14" width="1" height="1" fill="black"/>
<rect x="110" y="14" width="1" height="1" fill="black"/>
<rect x="46" y="14" width="1" height="1" fill="black"/>
<rect x="12" y="14" width="1" height="1" fill="black"/>
<rect x="76" y="14" width="1" height="1" fill="black"/>
<rect x="108" y="14" width="1" height="1" fill="black"/>
<rect x="44" y="14" width="1" height="1" fill="black"/>
<rect x="12" y="15" width="1" height="1" fill="black"/>
<rect x="76" y="15" width="1" height="1" fill="black"/>
<rect x="108" y="15" width="1" height="1" fill="black"/>
<rect x="44" y="15" width="1" height="1" fill="black"/>
<rect x="13" y="15" width="1" height="1" fill="black"/>
<rect x="77" y="15" width="1" height="1" fill="black"/>
<rect x="109" y="15" width="1" height="1" fill="black"/>
<rect x="45" y="15" width="1" height="1" fill="black"/>
<rect x="14" y="15" width="1" height="1" fill="black"/>
<rect x="78" y="15" width="1" height="1" fill="black"/>
<rect x="110" y="15" width="1" height="1" fill="black"/>
<rect x="46" y="15" width="1" height="1" fill="black"/>
<rect x="15" y="15" width="1" height="1" fill="black"/>
<rect x="79" y="15" width="1" height="1" fill="black"/>
<rect x="111" y="15" width="1" height="1" fill="black"/>
<rect x="47" y="15" width="1" height="1" fill="black"/>
<rect x="15" y="14" width="1" height="1" fill="black"/>
<rect x="79" y="14" width="1" height="1" fill="black"/>
<rect x="111" y="14" width="1" height="1" fill="black"/>
<rect x="47" y="14" width="1" height="1" fill="black"/>
<rect x="16" y="14" width="1" height="1" fill="black"/>
<rect x="80" y="14" width="1" height="1" fill="black"/>
<rect x="112" y="14" width="1" height="1" fill="black"/>
<rect x="48" y="14" width="1" height="1" fill="black"/>
<rect x="18" y="14" width="1" height="1" fill="black"/>
<rect x="82" y="14" width="1" height="1" fill="black"/>
<rect x="114" y="14" width="1" height="1" fill="black"/>
<rect x="50" y="14" width="1" height="1" fill="black"/>
<rect x="17" y="14" width="1" height="1" fill="black"/>
<rect x="81" y="14" width="1" height="1" fill="black"/>
<rect x="113" y="14" width="1" height="1" fill="black"/>
<rect x="49" y="14" width="1" height="1" fill="black"/>
<rect x="17" y="15" width="1" height="1" fill="black"/>
<rect x="81" y="15" width="1" height="1" fill="black"/>
<rect x="113" y="15" width="1" height="1" fill="black"/>
<rect x="49" y="15" width="1" height="1" fill="black"/>
<rect x="16" y="15" width="1" height="1" fill="black"/>
<rect x="80" y="15" width="1" height="1" fill="black"/>
<rect x="112" y="15" width="1" height="1" fill="black"/>
<rect x="48" y="15" width="1" height="1" fill="black"/>
<rect x="13" y="14" width="1" height="1" fill="black"/>
<rect x="77" y="14" width="1" height="1" fill="black"/>
<rect x="109" y="14" width="1" height="1" fill="black"/>
<rect x="45" y="14" width="1" height="1" fill="black"/>
<rect x="13" y="13" width="1" height="1" fill="black"/>
<rect x="77" y="13" width="1" height="1" fill="black"/>
<rect x="109" y="13" width="1" height="1" fill="black"/>
<rect x="45" y="13" width="1" height="1" fill="black"/>
<rect x="19" y="16" width="1" height="1" fill="black"/>
<rect x="83" y="16" width="1" height="1" fill="black"/>
<rect x="115" y="16" width="1" height="1" fill="black"/>
<rect x="51" y="16" width="1" height="1" fill="black"/>
<rect x="19" y="15" width="1" height="1" fill="black"/>
<rect x="83" y="15" width="1" height="1" fill="black"/>
<rect x="115" y="15" width="1" height="1" fill="black"/>
<rect x="51" y="15" width="1" height="1" fill="black"/>
<rect x="19" y="14" width="1" height="1" fill="black"/>
<rect x="83" y="14" width="1" height="1" fill="black"/>
<rect x="115" y="14" width="1" height="1" fill="black"/>
<rect x="51" y="14" width="1" height="1" fill="black"/>
<rect x="18" y="17" width="1" height="1" fill="black"/>
<rect x="82" y="17" width="1" height="1" fill="black"/>
<rect x="114" y="17" width="1" height="1" fill="black"/>
<rect x="50" y="17" width="1" height="1" fill="black"/>
<rect x="18" y="16" width="1" height="1" fill="black"/>
<rect x="82" y="16" width="1" height="1" fill="black"/>
<rect x="114" y="16" width="1" height="1" fill="black"/>
<rect x="50" y="16" width="1" height="1" fill="black"/>
<rect x="18" y="15" width="1" height="1" fill="black"/>
<rect x="82" y="15" width="1" height="1" fill="black"/>
<rect x="114" y="15" width="1" height="1" fill="black"/>
<rect x="50" y="15" width="1" height="1" fill="black"/>
<rect x="17" y="16" width="1" height="1" fill="black"/>
<rect x="81" y="16" width="1" height="1" fill="black"/>
<rect x="113" y="16" width="1" height="1" fill="black"/>
<rect x="49" y="16" width="1" height="1" fill="black"/>
<rect x="16" y="17" width="1" height="1" fill="black"/>
<rect x="80" y="17" width="1" height="1" fill="black"/>
<rect x="112" y="17" width="1" height="1" fill="black"/>
<rect x="48" y="17" width="1" height="1" fill="black"/>
<rect x="15" y="17" width="1" height="1" fill="black"/>
<rect x="79" y="17" width="1" height="1" fill="black"/>
<rect x="111" y="17" width="1" height="1" fill="black"/>
<rect x="47" y="17" width="1" height="1" fill="black"/>
<rect x="15" y="18" width="1" height="1" fill="black"/>
<rect x="79" y="18" width="1" height="1" fill="black"/>
<rect x="111" y="18" width="1" height="1" fill="black"/>
<rect x="47" y="18" width="1" height="1" fill="black"/>
<rect x="16" y="16" width="1" height="1" fill="black"/>
<rect x="80" y="16" width="1" height="1" fill="black"/>
<rect x="112" y="16" width="1" height="1" fill="black"/>
<rect x="48" y="16" width="1" height="1" fill="black"/>
<rect x="15" y="16" width="1" height="1" fill="black"/>
<rect x="79" y="16" width="1" height="1" fill="black"/>
<rect x="111" y="16" width="1" height="1" fill="black"/>
<rect x="47" y="16" width="1" height="1" fill="black"/>
<rect x="14" y="17" width="1" height="1" fill="black"/>
<rect x="78" y="17" width="1" height="1" fill="black"/>
<rect x="110" y="17" width="1" height="1" fill="black"/>
<rect x="46" y="17" width="1" height="1" fill="black"/>
<rect x="14" y="16" width="1" height="1" fill="black"/>
<rect x="78" y="16" width="1" height="1" fill="black"/>
<rect x="110" y="16" width="1" height="1" fill="black"/>
<rect x="46" y="16" width="1" height="1" fill="black"/>
<rect x="13" y="16" width="1" height="1" fill="black"/>
<rect x="77" y="16" width="1" height="1" fill="black"/>
<rect x="109" y="16" width="1" height="1" fill="black"/>
<rect x="45" y="16" width="1" height="1" fill="black"/>
<rect x="12" y="16" width="1" height="1" fill="black"/>
<rect x="76" y="16" width="1" height="1" fill="black"/>
<rect x="108" y="16" width="1" height="1" fill="black"/>
<rect x="44" y="16" width="1" height="1" fill="black"/>
<rect x="11" y="16" width="1" height="1" fill="black"/>
<rect x="75" y="16" width="1" height="1" fill="black"/>
<rect x="107" y="16" width="1" height="1" fill="black"/>
<rect x="43" y="16" width="1" height="1" fill="black"/>
<rect x="11" y="17" width="1" height="1" fill="black"/>
<rect x="75" y="17" width="1" height="1" fill="black"/>
<rect x="107" y="17" width="1" height="1" fill="black"/>
<rect x="43" y="17" width="1" height="1" fill="black"/>
<rect x="10" y="17" width="1" height="1" fill="black"/>
<rect x="74" y="17" width="1" height="1" fill="black"/>
<rect x="106" y="17" width="1" height="1" fill="black"/>
<rect x="42" y="17" width="1" height="1" fill="black"/>
<rect x="10" y="16" width="1" height="1" fill="black"/>
<rect x="74" y="16" width="1" height="1" fill="black"/>
<rect x="106" y="16" width="1" height="1" fill="black"/>
<rect x="42" y="16" width="1" height="1" fill="black"/>
<rect x="10" y="15" width="1" height="1" fill="black"/>
<rect x="74" y="15" width="1" height="1" fill="black"/>
<rect x="106" y="15" width="1" height="1" fill="black"/>
<rect x="42" y="15" width="1" height="1" fill="black"/>
<rect x="11" y="15" width="1" height="1" fill="black"/>
<rect x="75" y="15" width="1" height="1" fill="black"/>
<rect x="107" y="15" width="1" height="1" fill="black"/>
<rect x="43" y="15" width="1" height="1" fill="black"/>
<rect x="11" y="14" width="1" height="1" fill="black"/>
<rect x="75" y="14" width="1" height="1" fill="black"/>
<rect x="107" y="14" width="1" height="1" fill="black"/>
<rect x="43" y="14" width="1" height="1" fill="black"/>
<rect x="18" y="24" width="1" height="1" fill="black"/>
<rect x="82" y="24" width="1" height="1" fill="black"/>
<rect x="114" y="24" width="1" height="1" fill="black"/>
<rect x="50" y="24" width="1" height="1" fill="black"/>
<rect x="20" y="26" width="1" height="1" fill="black"/>
<rect x="84" y="26" width="1" height="1" fill="black"/>
<rect x="52" y="26" width="1" height="1" fill="black"/>
<rect x="21" y="27" width="1" height="1" fill="black"/>
<rect x="85" y="27" width="1" height="1" fill="black"/>
<rect x="117" y="26" width="1" height="1" fill="black"/>
<rect x="117" y="25" width="1" height="1" fill="black"/>
<rect x="53" y="27" width="1" height="1" fill="black"/>
<rect x="18" y="28" width="1" height="1" fill="black"/>
<rect x="82" y="28" width="1" height="1" fill="black"/>
<rect x="50" y="28" width="1" height="1" fill="black"/>
<rect x="18" y="29" width="1" height="1" fill="#304560"/>
<rect x="82" y="29" width="1" height="1" fill="#304560"/>
<rect x="114" y="29" width="1" height="1" fill="#304560"/>
<rect x="50" y="29" width="1" height="1" fill="#304560"/>
<rect x="18" y="27" width="1" height="1" fill="black"/>
<rect x="82" y="27" width="1" height="1" fill="black"/>
<rect x="114" y="27" width="1" height="1" fill="black"/>
<rect x="50" y="27" width="1" height="1" fill="black"/>
<rect x="18" y="26" width="1" height="1" fill="black"/>
<rect x="82" y="26" width="1" height="1" fill="black"/>
<rect x="114" y="26" width="1" height="1" fill="black"/>
<rect x="50" y="26" width="1" height="1" fill="black"/>
<rect x="20" y="28" width="1" height="1" fill="black"/>
<rect x="84" y="28" width="1" height="1" fill="black"/>
<rect x="116" y="27" width="1" height="1" fill="black"/>
<rect x="52" y="28" width="1" height="1" fill="black"/>
<rect x="14" y="29" width="1" height="1" fill="#304560"/>
<rect x="78" y="29" width="1" height="1" fill="#304560"/>
<rect x="46" y="29" width="1" height="1" fill="#304560"/>
<rect x="14" y="28" width="1" height="1" fill="#304560"/>
<rect x="78" y="28" width="1" height="1" fill="#304560"/>
<rect x="110" y="28" width="1" height="1" fill="#304560"/>
<rect x="46" y="28" width="1" height="1" fill="#304560"/>
<rect x="14" y="27" width="1" height="1" fill="black"/>
<rect x="78" y="27" width="1" height="1" fill="black"/>
<rect x="110" y="27" width="1" height="1" fill="black"/>
<rect x="46" y="27" width="1" height="1" fill="black"/>
<rect x="13" y="29" width="1" height="1" fill="#304560"/>
<rect x="77" y="29" width="1" height="1" fill="#304560"/>
<rect x="109" y="29" width="1" height="1" fill="#304560"/>
<rect x="45" y="29" width="1" height="1" fill="#304560"/>
<rect x="45" y="28" width="1" height="1" fill="#304560"/>
<rect x="11" y="27" width="1" height="1" fill="#D0AC86"/>
<rect x="75" y="27" width="1" height="1" fill="#D0AC86"/>
<rect x="107" y="27" width="1" height="1" fill="#D0AC86"/>
<rect x="43" y="26" width="1" height="1" fill="#D0AC86"/>
<rect x="12" y="27" width="1" height="1" fill="#D0AC86"/>
<rect x="76" y="27" width="1" height="1" fill="#D0AC86"/>
<rect x="44" y="26" width="1" height="1" fill="#D0AC86"/>
<rect x="12" y="26" width="1" height="1" fill="#D0AC86"/>
<rect x="76" y="26" width="1" height="1" fill="#D0AC86"/>
<rect x="44" y="25" width="1" height="1" fill="#D0AC86"/>
<rect x="43" y="25" width="1" height="1" fill="#D0AC86"/>
<rect x="19" y="26" width="1" height="1" fill="#D0AC86"/>
<rect x="83" y="26" width="1" height="1" fill="#D0AC86"/>
<rect x="115" y="25" width="1" height="1" fill="#D0AC86"/>
<rect x="116" y="25" width="1" height="1" fill="#D0AC86"/>
<rect x="14" y="23" width="1" height="1" fill="#D0AC86"/>
<rect x="78" y="23" width="1" height="1" fill="#D0AC86"/>
<rect x="110" y="23" width="1" height="1" fill="#D0AC86"/>
<rect x="46" y="23" width="1" height="1" fill="#D0AC86"/>
<rect x="14" y="22" width="1" height="1" fill="#D0AC86"/>
<rect x="78" y="22" width="1" height="1" fill="#D0AC86"/>
<rect x="110" y="22" width="1" height="1" fill="#D0AC86"/>
<rect x="46" y="22" width="1" height="1" fill="#D0AC86"/>
<rect x="15" y="22" width="1" height="1" fill="#D0AC86"/>
<rect x="79" y="22" width="1" height="1" fill="#D0AC86"/>
<rect x="111" y="22" width="1" height="1" fill="#D0AC86"/>
<rect x="47" y="22" width="1" height="1" fill="#D0AC86"/>
<rect x="15" y="21" width="1" height="1" fill="#D0AC86"/>
<rect x="79" y="21" width="1" height="1" fill="#D0AC86"/>
<rect x="111" y="21" width="1" height="1" fill="#D0AC86"/>
<rect x="47" y="21" width="1" height="1" fill="#D0AC86"/>
<rect x="15" y="20" width="1" height="1" fill="#D0AC86"/>
<rect x="79" y="20" width="1" height="1" fill="#D0AC86"/>
<rect x="111" y="20" width="1" height="1" fill="#D0AC86"/>
<rect x="47" y="20" width="1" height="1" fill="#D0AC86"/>
<rect x="14" y="20" width="1" height="1" fill="#D0AC86"/>
<rect x="78" y="20" width="1" height="1" fill="#D0AC86"/>
<rect x="110" y="20" width="1" height="1" fill="#D0AC86"/>
<rect x="46" y="20" width="1" height="1" fill="#D0AC86"/>
<rect x="14" y="21" width="1" height="1" fill="#D0AC86"/>
<rect x="78" y="21" width="1" height="1" fill="#D0AC86"/>
<rect x="110" y="21" width="1" height="1" fill="#D0AC86"/>
<rect x="46" y="21" width="1" height="1" fill="#D0AC86"/>
<rect x="17" y="22" width="1" height="1" fill="#D0AC86"/>
<rect x="81" y="22" width="1" height="1" fill="#D0AC86"/>
<rect x="113" y="22" width="1" height="1" fill="#D0AC86"/>
<rect x="49" y="22" width="1" height="1" fill="#D0AC86"/>
<rect x="17" y="21" width="1" height="1" fill="#D0AC86"/>
<rect x="81" y="21" width="1" height="1" fill="#D0AC86"/>
<rect x="113" y="21" width="1" height="1" fill="#D0AC86"/>
<rect x="49" y="21" width="1" height="1" fill="#D0AC86"/>
<rect x="16" y="22" width="1" height="1" fill="#D0AC86"/>
<rect x="80" y="22" width="1" height="1" fill="#D0AC86"/>
<rect x="112" y="22" width="1" height="1" fill="#D0AC86"/>
<rect x="48" y="22" width="1" height="1" fill="#D0AC86"/>
<rect x="16" y="21" width="1" height="1" fill="#D0AC86"/>
<rect x="80" y="21" width="1" height="1" fill="#D0AC86"/>
<rect x="112" y="21" width="1" height="1" fill="#D0AC86"/>
<rect x="48" y="21" width="1" height="1" fill="#D0AC86"/>
<rect x="16" y="20" width="1" height="1" fill="#D0AC86"/>
<rect x="80" y="20" width="1" height="1" fill="#D0AC86"/>
<rect x="112" y="20" width="1" height="1" fill="#D0AC86"/>
<rect x="48" y="20" width="1" height="1" fill="#D0AC86"/>
<rect x="17" y="19" width="1" height="1" fill="#D0AC86"/>
<rect x="81" y="19" width="1" height="1" fill="#D0AC86"/>
<rect x="113" y="19" width="1" height="1" fill="#D0AC86"/>
<rect x="49" y="19" width="1" height="1" fill="#D0AC86"/>
<rect x="17" y="18" width="1" height="1" fill="#D0AC86"/>
<rect x="81" y="18" width="1" height="1" fill="#D0AC86"/>
<rect x="113" y="18" width="1" height="1" fill="#D0AC86"/>
<rect x="49" y="18" width="1" height="1" fill="#D0AC86"/>
<rect x="18" y="18" width="1" height="1" fill="#D0AC86"/>
<rect x="82" y="18" width="1" height="1" fill="#D0AC86"/>
<rect x="114" y="18" width="1" height="1" fill="#D0AC86"/>
<rect x="50" y="18" width="1" height="1" fill="#D0AC86"/>
<rect x="19" y="18" width="1" height="1" fill="#D0AC86"/>
<rect x="83" y="18" width="1" height="1" fill="#D0AC86"/>
<rect x="115" y="18" width="1" height="1" fill="#D0AC86"/>
<rect x="51" y="18" width="1" height="1" fill="#D0AC86"/>
<rect x="20" y="17" width="1" height="1" fill="#D0AC86"/>
<rect x="84" y="17" width="1" height="1" fill="#D0AC86"/>
<rect x="116" y="17" width="1" height="1" fill="#D0AC86"/>
<rect x="52" y="17" width="1" height="1" fill="#D0AC86"/>
<rect x="20" y="18" width="1" height="1" fill="#D0AC86"/>
<rect x="84" y="18" width="1" height="1" fill="#D0AC86"/>
<rect x="116" y="18" width="1" height="1" fill="#D0AC86"/>
<rect x="52" y="18" width="1" height="1" fill="#D0AC86"/>
<rect x="20" y="19" width="1" height="1" fill="#D0AC86"/>
<rect x="84" y="19" width="1" height="1" fill="#D0AC86"/>
<rect x="116" y="19" width="1" height="1" fill="#D0AC86"/>
<rect x="52" y="19" width="1" height="1" fill="#D0AC86"/>
<rect x="17" y="20" width="1" height="1" fill="#D0AC86"/>
<rect x="81" y="20" width="1" height="1" fill="#D0AC86"/>
<rect x="113" y="20" width="1" height="1" fill="#D0AC86"/>
<rect x="49" y="20" width="1" height="1" fill="#D0AC86"/>
<rect x="16" y="19" width="1" height="1" fill="#D0AC86"/>
<rect x="80" y="19" width="1" height="1" fill="#D0AC86"/>
<rect x="112" y="19" width="1" height="1" fill="#D0AC86"/>
<rect x="48" y="19" width="1" height="1" fill="#D0AC86"/>
<rect x="16" y="18" width="1" height="1" fill="#D0AC86"/>
<rect x="80" y="18" width="1" height="1" fill="#D0AC86"/>
<rect x="112" y="18" width="1" height="1" fill="#D0AC86"/>
<rect x="48" y="18" width="1" height="1" fill="#D0AC86"/>
<rect x="15" y="19" width="1" height="1" fill="#D0AC86"/>
<rect x="79" y="19" width="1" height="1" fill="#D0AC86"/>
<rect x="111" y="19" width="1" height="1" fill="#D0AC86"/>
<rect x="47" y="19" width="1" height="1" fill="#D0AC86"/>
<rect x="14" y="19" width="1" height="1" fill="#D0AC86"/>
<rect x="78" y="19" width="1" height="1" fill="#D0AC86"/>
<rect x="110" y="19" width="1" height="1" fill="#D0AC86"/>
<rect x="46" y="19" width="1" height="1" fill="#D0AC86"/>
<rect x="14" y="18" width="1" height="1" fill="#D0AC86"/>
<rect x="78" y="18" width="1" height="1" fill="#D0AC86"/>
<rect x="110" y="18" width="1" height="1" fill="#D0AC86"/>
<rect x="46" y="18" width="1" height="1" fill="#D0AC86"/>
<rect x="13" y="18" width="1" height="1" fill="#D0AC86"/>
<rect x="77" y="18" width="1" height="1" fill="#D0AC86"/>
<rect x="109" y="18" width="1" height="1" fill="#D0AC86"/>
<rect x="45" y="18" width="1" height="1" fill="#D0AC86"/>
<rect x="18" y="22" width="1" height="1" fill="#D0AC86"/>
<rect x="82" y="22" width="1" height="1" fill="#D0AC86"/>
<rect x="114" y="22" width="1" height="1" fill="#D0AC86"/>
<rect x="50" y="22" width="1" height="1" fill="#D0AC86"/>
<rect x="19" y="22" width="1" height="1" fill="#D0AC86"/>
<rect x="83" y="22" width="1" height="1" fill="#D0AC86"/>
<rect x="115" y="22" width="1" height="1" fill="#D0AC86"/>
<rect x="51" y="22" width="1" height="1" fill="#D0AC86"/>
<rect x="19" y="21" width="1" height="1" fill="#D0AC86"/>
<rect x="83" y="21" width="1" height="1" fill="#D0AC86"/>
<rect x="115" y="21" width="1" height="1" fill="#D0AC86"/>
<rect x="51" y="21" width="1" height="1" fill="#D0AC86"/>
<rect x="19" y="20" width="1" height="1" fill="#D0AC86"/>
<rect x="83" y="20" width="1" height="1" fill="#D0AC86"/>
<rect x="115" y="20" width="1" height="1" fill="#D0AC86"/>
<rect x="51" y="20" width="1" height="1" fill="#D0AC86"/>
<rect x="19" y="19" width="1" height="1" fill="#C79E73"/>
<rect x="83" y="19" width="1" height="1" fill="#C79E73"/>
<rect x="115" y="19" width="1" height="1" fill="#C79E73"/>
<rect x="51" y="19" width="1" height="1" fill="#C79E73"/>
<rect x="20" y="20" width="1" height="1" fill="#C79E73"/>
<rect x="84" y="20" width="1" height="1" fill="#C79E73"/>
<rect x="116" y="20" width="1" height="1" fill="#C79E73"/>
<rect x="52" y="20" width="1" height="1" fill="#C79E73"/>
<rect x="20" y="21" width="1" height="1" fill="#C79E73"/>
<rect x="84" y="21" width="1" height="1" fill="#C79E73"/>
<rect x="116" y="21" width="1" height="1" fill="#C79E73"/>
<rect x="52" y="21" width="1" height="1" fill="#C79E73"/>
<rect x="20" y="22" width="1" height="1" fill="#C79E73"/>
<rect x="84" y="22" width="1" height="1" fill="#C79E73"/>
<rect x="116" y="22" width="1" height="1" fill="#C79E73"/>
<rect x="52" y="22" width="1" height="1" fill="#C79E73"/>
<rect x="20" y="23" width="1" height="1" fill="#C79E73"/>
<rect x="84" y="23" width="1" height="1" fill="#C79E73"/>
<rect x="116" y="23" width="1" height="1" fill="#C79E73"/>
<rect x="52" y="23" width="1" height="1" fill="#C79E73"/>
<rect x="18" y="23" width="1" height="1" fill="#C79E73"/>
<rect x="82" y="23" width="1" height="1" fill="#C79E73"/>
<rect x="114" y="23" width="1" height="1" fill="#C79E73"/>
<rect x="50" y="23" width="1" height="1" fill="#C79E73"/>
<rect x="17" y="23" width="1" height="1" fill="#C79E73"/>
<rect x="81" y="23" width="1" height="1" fill="#C79E73"/>
<rect x="113" y="23" width="1" height="1" fill="#C79E73"/>
<rect x="49" y="23" width="1" height="1" fill="#C79E73"/>
<rect x="17" y="24" width="1" height="1" fill="#C79E73"/>
<rect x="81" y="24" width="1" height="1" fill="#C79E73"/>
<rect x="113" y="24" width="1" height="1" fill="#C79E73"/>
<rect x="49" y="24" width="1" height="1" fill="#C79E73"/>
<rect x="16" y="24" width="1" height="1" fill="#C79E73"/>
<rect x="80" y="24" width="1" height="1" fill="#C79E73"/>
<rect x="112" y="24" width="1" height="1" fill="#C79E73"/>
<rect x="48" y="24" width="1" height="1" fill="#C79E73"/>
<rect x="15" y="24" width="1" height="1" fill="#C79E73"/>
<rect x="79" y="24" width="1" height="1" fill="#C79E73"/>
<rect x="111" y="24" width="1" height="1" fill="#C79E73"/>
<rect x="47" y="24" width="1" height="1" fill="#C79E73"/>
<rect x="14" y="24" width="1" height="1" fill="#C79E73"/>
<rect x="78" y="24" width="1" height="1" fill="#C79E73"/>
<rect x="110" y="24" width="1" height="1" fill="#C79E73"/>
<rect x="46" y="24" width="1" height="1" fill="#C79E73"/>
<rect x="19" y="23" width="1" height="1" fill="#C79E73"/>
<rect x="83" y="23" width="1" height="1" fill="#C79E73"/>
<rect x="115" y="23" width="1" height="1" fill="#C79E73"/>
<rect x="51" y="23" width="1" height="1" fill="#C79E73"/>
<rect x="13" y="23" width="1" height="1" fill="#D0AC86"/>
<rect x="77" y="23" width="1" height="1" fill="#D0AC86"/>
<rect x="109" y="23" width="1" height="1" fill="#D0AC86"/>
<rect x="45" y="23" width="1" height="1" fill="#D0AC86"/>
<rect x="12" y="23" width="1" height="1" fill="#D0AC86"/>
<rect x="76" y="23" width="1" height="1" fill="#D0AC86"/>
<rect x="108" y="23" width="1" height="1" fill="#D0AC86"/>
<rect x="44" y="23" width="1" height="1" fill="#D0AC86"/>
<rect x="12" y="22" width="1" height="1" fill="#D0AC86"/>
<rect x="76" y="22" width="1" height="1" fill="#D0AC86"/>
<rect x="108" y="22" width="1" height="1" fill="#D0AC86"/>
<rect x="44" y="22" width="1" height="1" fill="#D0AC86"/>
<rect x="12" y="21" width="1" height="1" fill="#D0AC86"/>
<rect x="76" y="21" width="1" height="1" fill="#D0AC86"/>
<rect x="108" y="21" width="1" height="1" fill="#D0AC86"/>
<rect x="44" y="21" width="1" height="1" fill="#D0AC86"/>
<rect x="12" y="20" width="1" height="1" fill="#D0AC86"/>
<rect x="76" y="20" width="1" height="1" fill="#D0AC86"/>
<rect x="108" y="20" width="1" height="1" fill="#D0AC86"/>
<rect x="44" y="20" width="1" height="1" fill="#D0AC86"/>
<rect x="12" y="19" width="1" height="1" fill="#D0AC86"/>
<rect x="76" y="19" width="1" height="1" fill="#D0AC86"/>
<rect x="108" y="19" width="1" height="1" fill="#D0AC86"/>
<rect x="44" y="19" width="1" height="1" fill="#D0AC86"/>
<rect x="11" y="21" width="1" height="1" fill="#E1BB93"/>
<rect x="75" y="21" width="1" height="1" fill="#E1BB93"/>
<rect x="107" y="21" width="1" height="1" fill="#E1BB93"/>
<rect x="43" y="21" width="1" height="1" fill="#E1BB93"/>
<rect x="11" y="20" width="1" height="1" fill="#E1BB93"/>
<rect x="75" y="20" width="1" height="1" fill="#E1BB93"/>
<rect x="107" y="20" width="1" height="1" fill="#E1BB93"/>
<rect x="43" y="20" width="1" height="1" fill="#E1BB93"/>
<rect x="11" y="19" width="1" height="1" fill="#E1BB93"/>
<rect x="75" y="19" width="1" height="1" fill="#E1BB93"/>
<rect x="107" y="19" width="1" height="1" fill="#E1BB93"/>
<rect x="43" y="19" width="1" height="1" fill="#E1BB93"/>
<rect x="11" y="18" width="1" height="1" fill="#E1BB93"/>
<rect x="75" y="18" width="1" height="1" fill="#E1BB93"/>
<rect x="107" y="18" width="1" height="1" fill="#E1BB93"/>
<rect x="43" y="18" width="1" height="1" fill="#E1BB93"/>
<rect x="12" y="17" width="1" height="1" fill="#E1BB93"/>
<rect x="76" y="17" width="1" height="1" fill="#E1BB93"/>
<rect x="108" y="17" width="1" height="1" fill="#E1BB93"/>
<rect x="44" y="17" width="1" height="1" fill="#E1BB93"/>
<rect x="12" y="18" width="1" height="1" fill="#E1BB93"/>
<rect x="76" y="18" width="1" height="1" fill="#E1BB93"/>
<rect x="108" y="18" width="1" height="1" fill="#E1BB93"/>
<rect x="44" y="18" width="1" height="1" fill="#E1BB93"/>
<rect x="13" y="17" width="1" height="1" fill="#E1BB93"/>
<rect x="77" y="17" width="1" height="1" fill="#E1BB93"/>
<rect x="109" y="17" width="1" height="1" fill="#E1BB93"/>
<rect x="45" y="17" width="1" height="1" fill="#E1BB93"/>
<rect x="17" y="17" width="1" height="1" fill="#E1BB93"/>
<rect x="81" y="17" width="1" height="1" fill="#E1BB93"/>
<rect x="113" y="17" width="1" height="1" fill="#E1BB93"/>
<rect x="49" y="17" width="1" height="1" fill="#E1BB93"/>
<rect x="20" y="16" width="1" height="1" fill="#E1BB93"/>
<rect x="84" y="16" width="1" height="1" fill="#E1BB93"/>
<rect x="116" y="16" width="1" height="1" fill="#E1BB93"/>
<rect x="52" y="16" width="1" height="1" fill="#E1BB93"/>
<rect x="19" y="17" width="1" height="1" fill="#E1BB93"/>
<rect x="83" y="17" width="1" height="1" fill="#E1BB93"/>
<rect x="115" y="17" width="1" height="1" fill="#E1BB93"/>
<rect x="51" y="17" width="1" height="1" fill="#E1BB93"/>
<rect x="13" y="22" width="1" height="1" fill="#D0AC86"/>
<rect x="77" y="22" width="1" height="1" fill="#D0AC86"/>
<rect x="109" y="22" width="1" height="1" fill="#D0AC86"/>
<rect x="45" y="22" width="1" height="1" fill="#D0AC86"/>
<rect x="11" y="22" width="1" height="1" fill="#D0AC86"/>
<rect x="75" y="22" width="1" height="1" fill="#D0AC86"/>
<rect x="107" y="22" width="1" height="1" fill="#D0AC86"/>
<rect x="43" y="22" width="1" height="1" fill="#D0AC86"/>
<rect x="11" y="23" width="1" height="1" fill="#D0AC86"/>
<rect x="75" y="23" width="1" height="1" fill="#D0AC86"/>
<rect x="107" y="23" width="1" height="1" fill="#D0AC86"/>
<rect x="43" y="23" width="1" height="1" fill="#D0AC86"/>
<rect x="19" y="27" width="1" height="1" fill="#D0AC86"/>
<rect x="83" y="27" width="1" height="1" fill="#D0AC86"/>
<rect x="115" y="26" width="1" height="1" fill="#D0AC86"/>
<rect x="20" y="27" width="1" height="1" fill="#D0AC86"/>
<rect x="84" y="27" width="1" height="1" fill="#D0AC86"/>
<rect x="116" y="26" width="1" height="1" fill="#D0AC86"/>
<rect x="52" y="27" width="1" height="1" fill="#D0AC86"/>
<rect x="14" y="30" width="1" height="1" fill="#304560"/>
<rect x="78" y="30" width="1" height="1" fill="#304560"/>
<rect x="46" y="30" width="1" height="1" fill="#304560"/>
<rect x="13" y="30" width="1" height="1" fill="#304560"/>
<rect x="77" y="30" width="1" height="1" fill="#304560"/>
<rect x="45" y="30" width="1" height="1" fill="#304560"/>
<rect x="12" y="30" width="1" height="1" fill="#304560"/>
<rect x="76" y="30" width="1" height="1" fill="#304560"/>
<rect x="44" y="30" width="1" height="1" fill="#304560"/>
<rect x="12" y="29" width="1" height="1" fill="#304560"/>
<rect x="76" y="29" width="1" height="1" fill="#304560"/>
<rect x="108" y="29" width="1" height="1" fill="#304560"/>
<rect x="44" y="29" width="1" height="1" fill="#304560"/>
<rect x="44" y="28" width="1" height="1" fill="#304560"/>
<rect x="12" y="28" width="1" height="1" fill="black"/>
<rect x="76" y="28" width="1" height="1" fill="black"/>
<rect x="108" y="28" width="1" height="1" fill="black"/>
<rect x="44" y="27" width="1" height="1" fill="black"/>
<rect x="12" y="25" width="1" height="1" fill="black"/>
<rect x="76" y="25" width="1" height="1" fill="black"/>
<rect x="108" y="25" width="1" height="1" fill="black"/>
<rect x="14" y="25" width="1" height="1" fill="black"/>
<rect x="78" y="25" width="1" height="1" fill="black"/>
<rect x="110" y="25" width="1" height="1" fill="black"/>
<rect x="46" y="25" width="1" height="1" fill="black"/>
<rect x="15" y="25" width="1" height="1" fill="black"/>
<rect x="79" y="25" width="1" height="1" fill="black"/>
<rect x="111" y="25" width="1" height="1" fill="black"/>
<rect x="47" y="25" width="1" height="1" fill="black"/>
<rect x="16" y="25" width="1" height="1" fill="black"/>
<rect x="80" y="25" width="1" height="1" fill="black"/>
<rect x="112" y="25" width="1" height="1" fill="black"/>
<rect x="48" y="25" width="1" height="1" fill="black"/>
<rect x="17" y="25" width="1" height="1" fill="black"/>
<rect x="81" y="25" width="1" height="1" fill="black"/>
<rect x="113" y="25" width="1" height="1" fill="black"/>
<rect x="49" y="25" width="1" height="1" fill="black"/>
<rect x="12" y="24" width="1" height="1" fill="black"/>
<rect x="76" y="24" width="1" height="1" fill="black"/>
<rect x="108" y="24" width="1" height="1" fill="black"/>
<rect x="44" y="24" width="1" height="1" fill="black"/>
<rect x="10" y="23" width="1" height="1" fill="black"/>
<rect x="74" y="23" width="1" height="1" fill="black"/>
<rect x="106" y="23" width="1" height="1" fill="black"/>
<rect x="42" y="23" width="1" height="1" fill="black"/>
<rect x="11" y="24" width="1" height="1" fill="black"/>
<rect x="75" y="24" width="1" height="1" fill="black"/>
<rect x="107" y="24" width="1" height="1" fill="black"/>
<rect x="43" y="24" width="1" height="1" fill="black"/>
<rect x="10" y="22" width="1" height="1" fill="black"/>
<rect x="74" y="22" width="1" height="1" fill="black"/>
<rect x="106" y="22" width="1" height="1" fill="black"/>
<rect x="42" y="22" width="1" height="1" fill="black"/>
<rect x="10" y="21" width="1" height="1" fill="black"/>
<rect x="74" y="21" width="1" height="1" fill="black"/>
<rect x="106" y="21" width="1" height="1" fill="black"/>
<rect x="42" y="21" width="1" height="1" fill="black"/>
<path d="M10 20H11V21H10V20Z" fill="black"/>
<path d="M74 20H75V21H74V20Z" fill="black"/>
<path d="M106 20H107V21H106V20Z" fill="black"/>
<path d="M42 20H43V21H42V20Z" fill="black"/>
<rect x="10" y="19" width="1" height="1" fill="black"/>
<rect x="74" y="19" width="1" height="1" fill="black"/>
<rect x="106" y="19" width="1" height="1" fill="black"/>
<rect x="42" y="19" width="1" height="1" fill="black"/>
<rect x="10" y="18" width="1" height="1" fill="black"/>
<rect x="74" y="18" width="1" height="1" fill="black"/>
<rect x="106" y="18" width="1" height="1" fill="black"/>
<rect x="42" y="18" width="1" height="1" fill="black"/>
<rect x="13" y="21" width="1" height="1" fill="black"/>
<rect x="77" y="21" width="1" height="1" fill="black"/>
<rect x="109" y="21" width="1" height="1" fill="black"/>
<rect x="45" y="21" width="1" height="1" fill="black"/>
<rect x="13" y="19" width="1" height="1" fill="black"/>
<rect x="77" y="19" width="1" height="1" fill="black"/>
<rect x="109" y="19" width="1" height="1" fill="black"/>
<rect x="45" y="19" width="1" height="1" fill="black"/>
<rect x="18" y="21" width="1" height="1" fill="black"/>
<rect x="82" y="21" width="1" height="1" fill="black"/>
<rect x="114" y="21" width="1" height="1" fill="black"/>
<rect x="50" y="21" width="1" height="1" fill="black"/>
<rect x="18" y="19" width="1" height="1" fill="black"/>
<rect x="82" y="19" width="1" height="1" fill="black"/>
<rect x="114" y="19" width="1" height="1" fill="black"/>
<rect x="50" y="19" width="1" height="1" fill="black"/>
<rect x="16" y="23" width="1" height="1" fill="#C89090" fill-opacity="0.9"/>
<rect x="80" y="23" width="1" height="1" fill="#C89090" fill-opacity="0.9"/>
<rect x="112" y="23" width="1" height="1" fill="#C89090" fill-opacity="0.9"/>
<rect x="48" y="23" width="1" height="1" fill="#C89090" fill-opacity="0.9"/>
<rect x="15" y="23" width="1" height="1" fill="#C89090" fill-opacity="0.9"/>
<rect x="79" y="23" width="1" height="1" fill="#C89090" fill-opacity="0.9"/>
<rect x="111" y="23" width="1" height="1" fill="#C89090" fill-opacity="0.9"/>
<rect x="47" y="23" width="1" height="1" fill="#C89090" fill-opacity="0.9"/>
<rect x="18" y="20" width="1" height="1" fill="black"/>
<rect x="82" y="20" width="1" height="1" fill="black"/>
<rect x="114" y="20" width="1" height="1" fill="black"/>
<rect x="50" y="20" width="1" height="1" fill="black"/>
<rect x="13" y="20" width="1" height="1" fill="black"/>
<rect x="77" y="20" width="1" height="1" fill="black"/>
<rect x="109" y="20" width="1" height="1" fill="black"/>
<rect x="45" y="20" width="1" height="1" fill="black"/>
<rect x="13" y="24" width="1" height="1" fill="black"/>
<rect x="77" y="24" width="1" height="1" fill="black"/>
<rect x="109" y="24" width="1" height="1" fill="black"/>
<rect x="45" y="24" width="1" height="1" fill="black"/>
<rect x="13" y="28" width="1" height="1" fill="black"/>
<rect x="77" y="28" width="1" height="1" fill="black"/>
<rect x="109" y="28" width="1" height="1" fill="black"/>
<rect x="13" y="27" width="1" height="1" fill="black"/>
<rect x="77" y="27" width="1" height="1" fill="black"/>
<rect x="109" y="27" width="1" height="1" fill="black"/>
<rect x="45" y="27" width="1" height="1" fill="black"/>
<rect x="13" y="26" width="1" height="1" fill="black"/>
<rect x="77" y="26" width="1" height="1" fill="black"/>
<rect x="109" y="26" width="1" height="1" fill="black"/>
<rect x="45" y="26" width="1" height="1" fill="black"/>
<rect x="11" y="26" width="1" height="1" fill="black"/>
<rect x="75" y="26" width="1" height="1" fill="black"/>
<rect x="107" y="26" width="1" height="1" fill="black"/>
<rect x="108" y="26" width="1" height="1" fill="black"/>
<rect x="108" y="27" width="1" height="1" fill="black"/>
<rect x="42" y="25" width="1" height="1" fill="black"/>
<rect x="11" y="28" width="1" height="1" fill="black"/>
<rect x="75" y="28" width="1" height="1" fill="black"/>
<rect x="107" y="28" width="1" height="1" fill="black"/>
<rect x="43" y="27" width="1" height="1" fill="black"/>
<rect x="10" y="27" width="1" height="1" fill="black"/>
<rect x="74" y="27" width="1" height="1" fill="black"/>
<rect x="106" y="27" width="1" height="1" fill="black"/>
<rect x="42" y="26" width="1" height="1" fill="black"/>
</svg>
