<svg width="16" height="17" viewBox="0 0 16 17" fill="none" xmlns="http://www.w3.org/2000/svg">
<circle cx="8" cy="8" r="7.75" fill="#FFFC31" stroke="#2D2D2D" stroke-width="0.5"/>
<path d="M3.7121 13.8159C4.0321 12.3226 4.33076 10.8719 4.6081 9.46393C4.71476 8.85593 4.82676 8.22659 4.9441 7.57593C5.06143 6.92526 5.1681 6.27993 5.2641 5.63993C5.37076 4.99993 5.46143 4.38126 5.5361 3.78393C5.62143 3.17593 5.68543 2.62659 5.7281 2.13593C5.97343 2.15726 6.25076 2.17859 6.5601 2.19993C6.86943 2.21059 7.15743 2.22659 7.4241 2.24793C7.7441 2.26926 8.0641 2.27993 8.3841 2.27993C8.37343 2.32259 8.35743 2.40259 8.3361 2.51993C8.31476 2.63726 8.2881 2.78126 8.2561 2.95193C8.2241 3.11193 8.18676 3.29326 8.1441 3.49593C8.1121 3.69859 8.07476 3.90126 8.0321 4.10393C7.94676 4.57326 7.85076 5.10126 7.7441 5.68793L7.8401 5.67193C7.94676 5.50126 8.0961 5.26659 8.2881 4.96793C8.49076 4.65859 8.69876 4.33326 8.9121 3.99193C9.12543 3.65059 9.33343 3.32526 9.5361 3.01593C9.73876 2.69593 9.90943 2.42393 10.0481 2.19993C10.5814 2.15726 11.1148 2.10926 11.6481 2.05593C12.1814 2.00259 12.7148 1.93326 13.2481 1.84793C12.7468 2.51993 12.2614 3.18126 11.7921 3.83193C11.5894 4.10926 11.3814 4.39726 11.1681 4.69593C10.9654 4.99459 10.7628 5.28793 10.5601 5.57593C10.3574 5.86393 10.1654 6.14126 9.9841 6.40793C9.81343 6.67459 9.65876 6.91993 9.5201 7.14393C9.75476 8.22126 10.0321 9.26126 10.3521 10.2639C10.6721 11.2666 10.9974 12.2906 11.3281 13.3359C11.0828 13.3253 10.8321 13.3199 10.5761 13.3199C10.3201 13.3093 10.0694 13.3039 9.8241 13.3039C9.51476 13.3039 9.2161 13.3093 8.9281 13.3199C8.6401 13.3199 8.34143 13.3253 8.0321 13.3359C7.9361 12.6426 7.82943 11.9173 7.7121 11.1599C7.60543 10.3919 7.5041 9.66126 7.4081 8.96793L7.1201 9.30393C7.04543 9.62393 6.9601 10.0186 6.8641 10.4879C6.77876 10.9573 6.69343 11.4106 6.6081 11.8479C6.5121 12.3599 6.41076 12.8879 6.3041 13.4319L3.7121 13.8159Z" fill="#2D2D2D"/>
</svg>
