<svg width="102" height="37" viewBox="0 0 102 37" fill="none" xmlns="http://www.w3.org/2000/svg">
<path d="M0.336 36.048C1.296 31.568 2.192 27.216 3.024 22.992C3.344 21.168 3.68 19.28 4.032 17.328C4.384 15.376 4.704 13.44 4.992 11.52C5.312 9.6 5.584 7.744 5.808 5.952C6.064 4.128 6.256 2.48 6.384 1.008C7.12 1.072 7.952 1.136 8.88 1.2C9.808 1.232 10.672 1.28 11.472 1.344C12.432 1.408 13.392 1.44 14.352 1.44C14.32 1.568 14.272 1.808 14.208 2.16C14.144 2.512 14.064 2.944 13.968 3.456C13.872 3.936 13.76 4.48 13.632 5.088C13.536 5.696 13.424 6.304 13.296 6.912C13.04 8.32 12.752 9.904 12.432 11.664L12.72 11.616C13.04 11.104 13.488 10.4 14.064 9.504C14.672 8.576 15.296 7.6 15.936 6.576C16.576 5.552 17.2 4.576 17.808 3.648C18.416 2.688 18.928 1.872 19.344 1.2C20.944 1.072 22.544 0.927999 24.144 0.767999C25.744 0.607999 27.344 0.399999 28.944 0.143998C27.44 2.16 25.984 4.144 24.576 6.096C23.968 6.928 23.344 7.792 22.704 8.688C22.096 9.584 21.488 10.464 20.88 11.328C20.272 12.192 19.696 13.024 19.152 13.824C18.64 14.624 18.176 15.36 17.76 16.032C18.464 19.264 19.296 22.384 20.256 25.392C21.216 28.4 22.192 31.472 23.184 34.608C22.448 34.576 21.696 34.56 20.928 34.56C20.16 34.528 19.408 34.512 18.672 34.512C17.744 34.512 16.848 34.528 15.984 34.56C15.12 34.56 14.224 34.576 13.296 34.608C13.008 32.528 12.688 30.352 12.336 28.08C12.016 25.776 11.712 23.584 11.424 21.504L10.56 22.512C10.336 23.472 10.08 24.656 9.792 26.064C9.536 27.472 9.28 28.832 9.024 30.144C8.736 31.68 8.432 33.264 8.112 34.896L0.336 36.048ZM38.8759 35.04C38.0759 35.168 37.1959 35.312 36.2359 35.472C35.2759 35.632 34.4119 35.776 33.6439 35.904C33.7719 34.848 33.8999 33.808 34.0279 32.784C34.1239 31.888 34.2039 30.992 34.2679 30.096C34.3639 29.2 34.4439 28.432 34.5079 27.792H30.3319L28.4119 34.704C27.7079 34.8 26.8759 34.912 25.9159 35.04C24.9559 35.136 24.0599 35.232 23.2279 35.328C22.2039 35.456 21.1959 35.584 20.2039 35.712C21.4839 31.456 22.7479 27.264 23.9959 23.136C24.5079 21.408 25.0359 19.6 25.5799 17.712C26.1559 15.824 26.7159 13.952 27.2599 12.096C27.8359 10.208 28.3799 8.4 28.8919 6.672C29.4039 4.944 29.8519 3.36 30.2359 1.92C32.4119 1.76 34.6199 1.568 36.8599 1.344C39.1319 1.12 41.3399 0.815998 43.4839 0.431997C43.3879 1.456 43.2759 2.736 43.1479 4.272C43.0519 5.776 42.9559 7.424 42.8599 9.216C42.7639 11.008 42.6679 12.88 42.5719 14.832C42.4759 16.784 42.3799 18.704 42.2839 20.592C42.1239 25.008 41.9479 29.696 41.7559 34.656C40.7959 34.816 39.8359 34.944 38.8759 35.04ZM31.4839 22.992C31.6119 22.992 31.8359 22.992 32.1559 22.992C32.5079 22.96 32.8599 22.944 33.2119 22.944C33.5959 22.912 33.9479 22.896 34.2679 22.896C34.5879 22.864 34.8119 22.832 34.9399 22.8C34.9399 22.608 34.9559 22.288 34.9879 21.84C35.0519 21.36 35.0999 20.832 35.1319 20.256C35.1959 19.648 35.2599 18.992 35.3239 18.288C35.3879 17.584 35.4519 16.896 35.5159 16.224C35.6439 14.592 35.8039 12.832 35.9959 10.944L36.2839 6.768L35.5639 6.816L34.4599 10.944L31.4839 22.992ZM43.8495 36.432C44.2655 31.952 44.6495 27.552 45.0015 23.232C45.1615 21.44 45.3055 19.552 45.4335 17.568C45.5935 15.584 45.7215 13.632 45.8175 11.712C45.9455 9.76 46.0415 7.888 46.1055 6.096C46.1695 4.272 46.2175 2.608 46.2495 1.104C47.0175 1.104 47.8335 1.088 48.6975 1.056C49.5935 1.024 50.3935 0.991999 51.0975 0.959999C51.8335 0.927999 52.4575 0.895999 52.9695 0.863997C53.4815 0.799998 53.7375 0.767999 53.7375 0.767999C53.3855 4.48 53.0815 7.536 52.8255 9.936C52.5695 12.304 52.3615 14.24 52.2015 15.744C52.0735 17.216 51.9455 18.64 51.8175 20.016C51.7215 21.392 51.6095 22.672 51.4815 23.856C51.3535 25.04 51.2415 26.048 51.1455 26.88H52.0095L57.3855 1.344C58.2495 1.312 59.1295 1.264 60.0255 1.2C60.8255 1.136 61.6575 1.088 62.5215 1.056C63.4175 1.024 64.2335 0.959998 64.9695 0.863997C64.5215 2.272 64.0575 3.824 63.5775 5.52C63.1295 7.216 62.6495 8.976 62.1375 10.8C61.6575 12.624 61.1775 14.48 60.6975 16.368C60.2495 18.256 59.8015 20.08 59.3535 21.84C58.3295 25.968 57.3055 30.208 56.2815 34.56L43.8495 36.432ZM58.581 36.048C59.541 31.568 60.437 27.216 61.269 22.992C61.589 21.168 61.925 19.28 62.277 17.328C62.629 15.376 62.949 13.44 63.237 11.52C63.557 9.6 63.829 7.744 64.053 5.952C64.309 4.128 64.501 2.48 64.629 1.008C65.365 1.072 66.197 1.136 67.125 1.2C68.053 1.232 68.917 1.28 69.717 1.344C70.677 1.408 71.637 1.44 72.597 1.44C72.565 1.568 72.517 1.808 72.453 2.16C72.389 2.512 72.309 2.944 72.213 3.456C72.117 3.936 72.005 4.48 71.877 5.088C71.781 5.696 71.669 6.304 71.541 6.912C71.285 8.32 70.997 9.904 70.677 11.664L70.965 11.616C71.285 11.104 71.733 10.4 72.309 9.504C72.917 8.576 73.541 7.6 74.181 6.576C74.821 5.552 75.445 4.576 76.053 3.648C76.661 2.688 77.173 1.872 77.589 1.2C79.189 1.072 80.789 0.927999 82.389 0.767999C83.989 0.607999 85.589 0.399999 87.189 0.143998C85.685 2.16 84.229 4.144 82.821 6.096C82.213 6.928 81.589 7.792 80.949 8.688C80.341 9.584 79.733 10.464 79.125 11.328C78.517 12.192 77.941 13.024 77.397 13.824C76.885 14.624 76.421 15.36 76.005 16.032C76.709 19.264 77.541 22.384 78.501 25.392C79.461 28.4 80.437 31.472 81.429 34.608C80.693 34.576 79.941 34.56 79.173 34.56C78.405 34.528 77.653 34.512 76.917 34.512C75.989 34.512 75.093 34.528 74.229 34.56C73.365 34.56 72.469 34.576 71.541 34.608C71.253 32.528 70.933 30.352 70.581 28.08C70.261 25.776 69.957 23.584 69.669 21.504L68.805 22.512C68.581 23.472 68.325 24.656 68.037 26.064C67.781 27.472 67.525 28.832 67.269 30.144C66.981 31.68 66.677 33.264 66.357 34.896L58.581 36.048ZM97.1209 35.04C96.3209 35.168 95.4409 35.312 94.4809 35.472C93.5209 35.632 92.6569 35.776 91.8889 35.904C92.0169 34.848 92.1449 33.808 92.2729 32.784C92.3689 31.888 92.4489 30.992 92.5129 30.096C92.6089 29.2 92.6889 28.432 92.7529 27.792H88.5769L86.6569 34.704C85.9529 34.8 85.1209 34.912 84.1609 35.04C83.2009 35.136 82.3049 35.232 81.4729 35.328C80.4489 35.456 79.4409 35.584 78.4489 35.712C79.7289 31.456 80.9929 27.264 82.2409 23.136C82.7529 21.408 83.2809 19.6 83.8249 17.712C84.4009 15.824 84.9609 13.952 85.5049 12.096C86.0809 10.208 86.6249 8.4 87.1369 6.672C87.6489 4.944 88.0969 3.36 88.4809 1.92C90.6569 1.76 92.8649 1.568 95.1049 1.344C97.3769 1.12 99.5849 0.815998 101.729 0.431997C101.633 1.456 101.521 2.736 101.393 4.272C101.297 5.776 101.201 7.424 101.105 9.216C101.009 11.008 100.913 12.88 100.817 14.832C100.721 16.784 100.625 18.704 100.529 20.592C100.369 25.008 100.193 29.696 100.001 34.656C99.0409 34.816 98.0809 34.944 97.1209 35.04ZM89.7289 22.992C89.8569 22.992 90.0809 22.992 90.4009 22.992C90.7529 22.96 91.1049 22.944 91.4569 22.944C91.8409 22.912 92.1929 22.896 92.5129 22.896C92.8329 22.864 93.0569 22.832 93.1849 22.8C93.1849 22.608 93.2009 22.288 93.2329 21.84C93.2969 21.36 93.3449 20.832 93.3769 20.256C93.4409 19.648 93.5049 18.992 93.5689 18.288C93.6329 17.584 93.6969 16.896 93.7609 16.224C93.8889 14.592 94.0489 12.832 94.2409 10.944L94.5289 6.768L93.8089 6.816L92.7049 10.944L89.7289 22.992Z" fill="#2D2D2D"/>
</svg>
