<svg width="64" height="64" viewBox="0 0 100 100" fill="none" xmlns="http://www.w3.org/2000/svg">
<circle cx="50" cy="50" r="48.5" fill="#FFFD7B" stroke="black" stroke-width="3"/>
<path d="M30.525 76.075C32.025 69.075 33.425 62.275 34.725 55.675C35.225 52.825 35.75 49.875 36.3 46.825C36.85 43.775 37.35 40.75 37.8 37.75C38.3 34.75 38.725 31.85 39.075 29.05C39.475 26.2 39.775 23.625 39.975 21.325C41.125 21.425 42.425 21.525 43.875 21.625C45.325 21.675 46.675 21.75 47.925 21.85C49.425 21.95 50.925 22 52.425 22C52.375 22.2 52.3 22.575 52.2 23.125C52.1 23.675 51.975 24.35 51.825 25.15C51.675 25.9 51.5 26.75 51.3 27.7C51.15 28.65 50.975 29.6 50.775 30.55C50.375 32.75 49.925 35.225 49.425 37.975L49.875 37.9C50.375 37.1 51.075 36 51.975 34.6C52.925 33.15 53.9 31.625 54.9 30.025C55.9 28.425 56.875 26.9 57.825 25.45C58.775 23.95 59.575 22.675 60.225 21.625C62.725 21.425 65.225 21.2 67.725 20.95C70.225 20.7 72.725 20.375 75.225 19.975C72.875 23.125 70.6 26.225 68.4 29.275C67.45 30.575 66.475 31.925 65.475 33.325C64.525 34.725 63.575 36.1 62.625 37.45C61.675 38.8 60.775 40.1 59.925 41.35C59.125 42.6 58.4 43.75 57.75 44.8C58.85 49.85 60.15 54.725 61.65 59.425C63.15 64.125 64.675 68.925 66.225 73.825C65.075 73.775 63.9 73.75 62.7 73.75C61.5 73.7 60.325 73.675 59.175 73.675C57.725 73.675 56.325 73.7 54.975 73.75C53.625 73.75 52.225 73.775 50.775 73.825C50.325 70.575 49.825 67.175 49.275 63.625C48.775 60.025 48.3 56.6 47.85 53.35L46.5 54.925C46.15 56.425 45.75 58.275 45.3 60.475C44.9 62.675 44.5 64.8 44.1 66.85C43.65 69.25 43.175 71.725 42.675 74.275L30.525 76.075Z" fill="black"/>
</svg>
